<svg width="262" height="262" viewBox="0 0 262 262" fill="none" xmlns="http://www.w3.org/2000/svg">
<g filter="url(#filter0_bd_474_36)">
<rect x="34.5" y="22.5" width="193" height="193" stroke="url(#paint0_linear_474_36)" shape-rendering="crispEdges"/>
</g>
<path d="M66.316 162.404V152.604H70.6C71.664 152.604 72.5973 152.809 73.4 153.22C74.2027 153.63 74.828 154.2 75.276 154.928C75.724 155.656 75.948 156.514 75.948 157.504C75.948 158.484 75.724 159.342 75.276 160.08C74.828 160.808 74.2027 161.377 73.4 161.788C72.5973 162.198 71.664 162.404 70.6 162.404H66.316ZM68.136 160.864H70.516C71.2533 160.864 71.888 160.724 72.42 160.444C72.9613 160.164 73.3767 159.772 73.666 159.268C73.9647 158.764 74.114 158.176 74.114 157.504C74.114 156.822 73.9647 156.234 73.666 155.74C73.3767 155.236 72.9613 154.844 72.42 154.564C71.888 154.284 71.2533 154.144 70.516 154.144H68.136V160.864ZM81.2284 162.502C80.3977 162.502 79.6697 162.338 79.0444 162.012C78.4284 161.676 77.9477 161.218 77.6024 160.64C77.2664 160.061 77.0984 159.403 77.0984 158.666C77.0984 157.919 77.2617 157.261 77.5884 156.692C77.9244 156.113 78.3817 155.66 78.9604 155.334C79.5484 155.007 80.2157 154.844 80.9624 154.844C81.6904 154.844 82.3391 155.002 82.9084 155.32C83.4777 155.637 83.9257 156.085 84.2524 156.664C84.5791 157.242 84.7424 157.924 84.7424 158.708C84.7424 158.782 84.7377 158.866 84.7284 158.96C84.7284 159.053 84.7237 159.142 84.7144 159.226H78.4844V158.064H83.7904L83.1044 158.428C83.1137 157.998 83.0251 157.62 82.8384 157.294C82.6517 156.967 82.3951 156.71 82.0684 156.524C81.7511 156.337 81.3824 156.244 80.9624 156.244C80.5331 156.244 80.1551 156.337 79.8284 156.524C79.5111 156.71 79.2591 156.972 79.0724 157.308C78.8951 157.634 78.8064 158.022 78.8064 158.47V158.75C78.8064 159.198 78.9091 159.594 79.1144 159.94C79.3197 160.285 79.6091 160.551 79.9824 160.738C80.3557 160.924 80.7851 161.018 81.2704 161.018C81.6904 161.018 82.0684 160.952 82.4044 160.822C82.7404 160.691 83.0391 160.486 83.3004 160.206L84.2384 161.284C83.9024 161.676 83.4777 161.979 82.9644 162.194C82.4604 162.399 81.8817 162.502 81.2284 162.502ZM88.7334 162.502C88.1081 162.502 87.5061 162.422 86.9274 162.264C86.3581 162.096 85.9054 161.895 85.5694 161.662L86.2414 160.332C86.5774 160.546 86.9787 160.724 87.4454 160.864C87.9121 161.004 88.3787 161.074 88.8454 161.074C89.3961 161.074 89.7927 160.999 90.0354 160.85C90.2874 160.7 90.4134 160.5 90.4134 160.248C90.4134 160.042 90.3294 159.888 90.1614 159.786C89.9934 159.674 89.7741 159.59 89.5034 159.534C89.2327 159.478 88.9294 159.426 88.5934 159.38C88.2667 159.333 87.9354 159.272 87.5994 159.198C87.2727 159.114 86.9741 158.997 86.7034 158.848C86.4327 158.689 86.2134 158.479 86.0454 158.218C85.8774 157.956 85.7934 157.611 85.7934 157.182C85.7934 156.706 85.9287 156.295 86.1994 155.95C86.4701 155.595 86.8481 155.324 87.3334 155.138C87.8281 154.942 88.4114 154.844 89.0834 154.844C89.5874 154.844 90.0961 154.9 90.6094 155.012C91.1227 155.124 91.5474 155.282 91.8834 155.488L91.2114 156.818C90.8567 156.603 90.4974 156.458 90.1334 156.384C89.7787 156.3 89.4241 156.258 89.0694 156.258C88.5374 156.258 88.1407 156.337 87.8794 156.496C87.6274 156.654 87.5014 156.855 87.5014 157.098C87.5014 157.322 87.5854 157.49 87.7534 157.602C87.9214 157.714 88.1407 157.802 88.4114 157.868C88.6821 157.933 88.9807 157.989 89.3074 158.036C89.6434 158.073 89.9747 158.134 90.3014 158.218C90.6281 158.302 90.9267 158.418 91.1974 158.568C91.4774 158.708 91.7014 158.908 91.8694 159.17C92.0374 159.431 92.1214 159.772 92.1214 160.192C92.1214 160.658 91.9814 161.064 91.7014 161.41C91.4307 161.755 91.0434 162.026 90.5394 162.222C90.0354 162.408 89.4334 162.502 88.7334 162.502ZM93.6285 162.404V154.928H95.3785V162.404H93.6285ZM94.5105 153.696C94.1838 153.696 93.9131 153.593 93.6985 153.388C93.4931 153.182 93.3905 152.935 93.3905 152.646C93.3905 152.347 93.4931 152.1 93.6985 151.904C93.9131 151.698 94.1838 151.596 94.5105 151.596C94.8371 151.596 95.1031 151.694 95.3085 151.89C95.5231 152.076 95.6305 152.314 95.6305 152.604C95.6305 152.912 95.5278 153.173 95.3225 153.388C95.1171 153.593 94.8465 153.696 94.5105 153.696ZM101.063 165.218C100.373 165.218 99.696 165.124 99.0333 164.938C98.38 164.76 97.8433 164.499 97.4233 164.154L98.2073 162.838C98.534 163.108 98.9447 163.323 99.4393 163.482C99.9433 163.65 100.452 163.734 100.965 163.734C101.787 163.734 102.389 163.542 102.771 163.16C103.154 162.786 103.345 162.222 103.345 161.466V160.136L103.485 158.442L103.429 156.748V154.928H105.095V161.27C105.095 162.623 104.75 163.617 104.059 164.252C103.369 164.896 102.37 165.218 101.063 165.218ZM100.839 162.068C100.13 162.068 99.486 161.918 98.9073 161.62C98.338 161.312 97.8853 160.887 97.5493 160.346C97.2227 159.804 97.0593 159.17 97.0593 158.442C97.0593 157.723 97.2227 157.093 97.5493 156.552C97.8853 156.01 98.338 155.59 98.9073 155.292C99.486 154.993 100.13 154.844 100.839 154.844C101.474 154.844 102.043 154.97 102.547 155.222C103.051 155.474 103.453 155.866 103.751 156.398C104.059 156.93 104.213 157.611 104.213 158.442C104.213 159.272 104.059 159.958 103.751 160.5C103.453 161.032 103.051 161.428 102.547 161.69C102.043 161.942 101.474 162.068 100.839 162.068ZM101.105 160.584C101.544 160.584 101.936 160.495 102.281 160.318C102.627 160.131 102.893 159.879 103.079 159.562C103.275 159.235 103.373 158.862 103.373 158.442C103.373 158.022 103.275 157.653 103.079 157.336C102.893 157.009 102.627 156.762 102.281 156.594C101.936 156.416 101.544 156.328 101.105 156.328C100.667 156.328 100.27 156.416 99.9153 156.594C99.57 156.762 99.2993 157.009 99.1033 157.336C98.9167 157.653 98.8233 158.022 98.8233 158.442C98.8233 158.862 98.9167 159.235 99.1033 159.562C99.2993 159.879 99.57 160.131 99.9153 160.318C100.27 160.495 100.667 160.584 101.105 160.584ZM111.638 154.844C112.235 154.844 112.767 154.96 113.234 155.194C113.71 155.427 114.083 155.786 114.354 156.272C114.625 156.748 114.76 157.364 114.76 158.12V162.404H113.01V158.344C113.01 157.681 112.851 157.186 112.534 156.86C112.226 156.533 111.792 156.37 111.232 156.37C110.821 156.37 110.457 156.454 110.14 156.622C109.823 156.79 109.575 157.042 109.398 157.378C109.23 157.704 109.146 158.12 109.146 158.624V162.404H107.396V154.928H109.062V156.944L108.768 156.328C109.029 155.852 109.407 155.488 109.902 155.236C110.406 154.974 110.985 154.844 111.638 154.844ZM120.849 162.404V154.928H122.515V156.986L122.319 156.384C122.543 155.88 122.893 155.497 123.369 155.236C123.855 154.974 124.457 154.844 125.175 154.844V156.51C125.101 156.491 125.031 156.482 124.965 156.482C124.9 156.472 124.835 156.468 124.769 156.468C124.107 156.468 123.579 156.664 123.187 157.056C122.795 157.438 122.599 158.012 122.599 158.778V162.404H120.849ZM130.105 162.502C129.275 162.502 128.547 162.338 127.921 162.012C127.305 161.676 126.825 161.218 126.479 160.64C126.143 160.061 125.975 159.403 125.975 158.666C125.975 157.919 126.139 157.261 126.465 156.692C126.801 156.113 127.259 155.66 127.837 155.334C128.425 155.007 129.093 154.844 129.839 154.844C130.567 154.844 131.216 155.002 131.785 155.32C132.355 155.637 132.803 156.085 133.129 156.664C133.456 157.242 133.619 157.924 133.619 158.708C133.619 158.782 133.615 158.866 133.605 158.96C133.605 159.053 133.601 159.142 133.591 159.226H127.361V158.064H132.667L131.981 158.428C131.991 157.998 131.902 157.62 131.715 157.294C131.529 156.967 131.272 156.71 130.945 156.524C130.628 156.337 130.259 156.244 129.839 156.244C129.41 156.244 129.032 156.337 128.705 156.524C128.388 156.71 128.136 156.972 127.949 157.308C127.772 157.634 127.683 158.022 127.683 158.47V158.75C127.683 159.198 127.786 159.594 127.991 159.94C128.197 160.285 128.486 160.551 128.859 160.738C129.233 160.924 129.662 161.018 130.147 161.018C130.567 161.018 130.945 160.952 131.281 160.822C131.617 160.691 131.916 160.486 132.177 160.206L133.115 161.284C132.779 161.676 132.355 161.979 131.841 162.194C131.337 162.399 130.759 162.502 130.105 162.502ZM137.61 162.502C136.985 162.502 136.383 162.422 135.804 162.264C135.235 162.096 134.782 161.895 134.446 161.662L135.118 160.332C135.454 160.546 135.856 160.724 136.322 160.864C136.789 161.004 137.256 161.074 137.722 161.074C138.273 161.074 138.67 160.999 138.912 160.85C139.164 160.7 139.29 160.5 139.29 160.248C139.29 160.042 139.206 159.888 139.038 159.786C138.87 159.674 138.651 159.59 138.38 159.534C138.11 159.478 137.806 159.426 137.47 159.38C137.144 159.333 136.812 159.272 136.476 159.198C136.15 159.114 135.851 158.997 135.58 158.848C135.31 158.689 135.09 158.479 134.922 158.218C134.754 157.956 134.67 157.611 134.67 157.182C134.67 156.706 134.806 156.295 135.076 155.95C135.347 155.595 135.725 155.324 136.21 155.138C136.705 154.942 137.288 154.844 137.96 154.844C138.464 154.844 138.973 154.9 139.486 155.012C140 155.124 140.424 155.282 140.76 155.488L140.088 156.818C139.734 156.603 139.374 156.458 139.01 156.384C138.656 156.3 138.301 156.258 137.946 156.258C137.414 156.258 137.018 156.337 136.756 156.496C136.504 156.654 136.378 156.855 136.378 157.098C136.378 157.322 136.462 157.49 136.63 157.602C136.798 157.714 137.018 157.802 137.288 157.868C137.559 157.933 137.858 157.989 138.184 158.036C138.52 158.073 138.852 158.134 139.178 158.218C139.505 158.302 139.804 158.418 140.074 158.568C140.354 158.708 140.578 158.908 140.746 159.17C140.914 159.431 140.998 159.772 140.998 160.192C140.998 160.658 140.858 161.064 140.578 161.41C140.308 161.755 139.92 162.026 139.416 162.222C138.912 162.408 138.31 162.502 137.61 162.502ZM146.649 162.502C146.043 162.502 145.487 162.362 144.983 162.082C144.489 161.802 144.092 161.382 143.793 160.822C143.504 160.252 143.359 159.534 143.359 158.666C143.359 157.788 143.499 157.07 143.779 156.51C144.069 155.95 144.461 155.534 144.955 155.264C145.45 154.984 146.015 154.844 146.649 154.844C147.387 154.844 148.035 155.002 148.595 155.32C149.165 155.637 149.613 156.08 149.939 156.65C150.275 157.219 150.443 157.891 150.443 158.666C150.443 159.44 150.275 160.117 149.939 160.696C149.613 161.265 149.165 161.708 148.595 162.026C148.035 162.343 147.387 162.502 146.649 162.502ZM142.505 165.12V154.928H144.171V156.692L144.115 158.68L144.255 160.668V165.12H142.505ZM146.453 161.004C146.873 161.004 147.247 160.91 147.573 160.724C147.909 160.537 148.175 160.266 148.371 159.912C148.567 159.557 148.665 159.142 148.665 158.666C148.665 158.18 148.567 157.765 148.371 157.42C148.175 157.065 147.909 156.794 147.573 156.608C147.247 156.421 146.873 156.328 146.453 156.328C146.033 156.328 145.655 156.421 145.319 156.608C144.983 156.794 144.717 157.065 144.521 157.42C144.325 157.765 144.227 158.18 144.227 158.666C144.227 159.142 144.325 159.557 144.521 159.912C144.717 160.266 144.983 160.537 145.319 160.724C145.655 160.91 146.033 161.004 146.453 161.004ZM155.463 162.502C154.698 162.502 154.016 162.338 153.419 162.012C152.822 161.676 152.35 161.218 152.005 160.64C151.66 160.061 151.487 159.403 151.487 158.666C151.487 157.919 151.66 157.261 152.005 156.692C152.35 156.113 152.822 155.66 153.419 155.334C154.016 155.007 154.698 154.844 155.463 154.844C156.238 154.844 156.924 155.007 157.521 155.334C158.128 155.66 158.599 156.108 158.935 156.678C159.28 157.247 159.453 157.91 159.453 158.666C159.453 159.403 159.28 160.061 158.935 160.64C158.599 161.218 158.128 161.676 157.521 162.012C156.924 162.338 156.238 162.502 155.463 162.502ZM155.463 161.004C155.892 161.004 156.275 160.91 156.611 160.724C156.947 160.537 157.208 160.266 157.395 159.912C157.591 159.557 157.689 159.142 157.689 158.666C157.689 158.18 157.591 157.765 157.395 157.42C157.208 157.065 156.947 156.794 156.611 156.608C156.275 156.421 155.897 156.328 155.477 156.328C155.048 156.328 154.665 156.421 154.329 156.608C154.002 156.794 153.741 157.065 153.545 157.42C153.349 157.765 153.251 158.18 153.251 158.666C153.251 159.142 153.349 159.557 153.545 159.912C153.741 160.266 154.002 160.537 154.329 160.724C154.665 160.91 155.043 161.004 155.463 161.004ZM165.369 154.844C165.966 154.844 166.498 154.96 166.965 155.194C167.441 155.427 167.814 155.786 168.085 156.272C168.355 156.748 168.491 157.364 168.491 158.12V162.404H166.741V158.344C166.741 157.681 166.582 157.186 166.265 156.86C165.957 156.533 165.523 156.37 164.963 156.37C164.552 156.37 164.188 156.454 163.871 156.622C163.553 156.79 163.306 157.042 163.129 157.378C162.961 157.704 162.877 158.12 162.877 158.624V162.404H161.127V154.928H162.793V156.944L162.499 156.328C162.76 155.852 163.138 155.488 163.633 155.236C164.137 154.974 164.715 154.844 165.369 154.844ZM173.021 162.502C172.395 162.502 171.793 162.422 171.215 162.264C170.645 162.096 170.193 161.895 169.857 161.662L170.529 160.332C170.865 160.546 171.266 160.724 171.733 160.864C172.199 161.004 172.666 161.074 173.133 161.074C173.683 161.074 174.08 160.999 174.323 160.85C174.575 160.7 174.701 160.5 174.701 160.248C174.701 160.042 174.617 159.888 174.449 159.786C174.281 159.674 174.061 159.59 173.791 159.534C173.52 159.478 173.217 159.426 172.881 159.38C172.554 159.333 172.223 159.272 171.887 159.198C171.56 159.114 171.261 158.997 170.991 158.848C170.72 158.689 170.501 158.479 170.333 158.218C170.165 157.956 170.081 157.611 170.081 157.182C170.081 156.706 170.216 156.295 170.486 155.95C170.757 155.595 171.135 155.324 171.62 155.138C172.115 154.942 172.699 154.844 173.371 154.844C173.875 154.844 174.383 154.9 174.897 155.012C175.41 155.124 175.835 155.282 176.171 155.488L175.499 156.818C175.144 156.603 174.785 156.458 174.421 156.384C174.066 156.3 173.711 156.258 173.357 156.258C172.825 156.258 172.428 156.337 172.167 156.496C171.915 156.654 171.789 156.855 171.789 157.098C171.789 157.322 171.873 157.49 172.041 157.602C172.209 157.714 172.428 157.802 172.699 157.868C172.969 157.933 173.268 157.989 173.595 158.036C173.931 158.073 174.262 158.134 174.589 158.218C174.915 158.302 175.214 158.418 175.485 158.568C175.765 158.708 175.989 158.908 176.157 159.17C176.325 159.431 176.409 159.772 176.409 160.192C176.409 160.658 176.269 161.064 175.989 161.41C175.718 161.755 175.331 162.026 174.827 162.222C174.323 162.408 173.721 162.502 173.021 162.502ZM177.916 162.404V154.928H179.666V162.404H177.916ZM178.798 153.696C178.471 153.696 178.2 153.593 177.986 153.388C177.78 153.182 177.678 152.935 177.678 152.646C177.678 152.347 177.78 152.1 177.986 151.904C178.2 151.698 178.471 151.596 178.798 151.596C179.124 151.596 179.39 151.694 179.596 151.89C179.81 152.076 179.918 152.314 179.918 152.604C179.918 152.912 179.815 153.173 179.61 153.388C179.404 153.593 179.134 153.696 178.798 153.696ZM183.95 162.404L180.744 154.928H182.564L185.322 161.522H184.426L187.282 154.928H188.962L185.756 162.404H183.95ZM193.211 162.502C192.446 162.502 191.764 162.338 191.167 162.012C190.57 161.676 190.098 161.218 189.753 160.64C189.408 160.061 189.235 159.403 189.235 158.666C189.235 157.919 189.408 157.261 189.753 156.692C190.098 156.113 190.57 155.66 191.167 155.334C191.764 155.007 192.446 154.844 193.211 154.844C193.986 154.844 194.672 155.007 195.269 155.334C195.876 155.66 196.347 156.108 196.683 156.678C197.028 157.247 197.201 157.91 197.201 158.666C197.201 159.403 197.028 160.061 196.683 160.64C196.347 161.218 195.876 161.676 195.269 162.012C194.672 162.338 193.986 162.502 193.211 162.502ZM193.211 161.004C193.64 161.004 194.023 160.91 194.359 160.724C194.695 160.537 194.956 160.266 195.143 159.912C195.339 159.557 195.437 159.142 195.437 158.666C195.437 158.18 195.339 157.765 195.143 157.42C194.956 157.065 194.695 156.794 194.359 156.608C194.023 156.421 193.645 156.328 193.225 156.328C192.796 156.328 192.413 156.421 192.077 156.608C191.75 156.794 191.489 157.065 191.293 157.42C191.097 157.765 190.999 158.18 190.999 158.666C190.999 159.142 191.097 159.557 191.293 159.912C191.489 160.266 191.75 160.537 192.077 160.724C192.413 160.91 192.791 161.004 193.211 161.004Z" fill="white"/>
<path d="M136.987 114.408H148.238V102.98H144.703V110.873H136.987V114.408ZM114.368 101.567H117.903V93.6737H125.619V90.1395H114.368V101.567ZM111.246 121.123C110.304 121.123 109.479 120.769 108.773 120.062C108.066 119.356 107.712 118.531 107.712 117.588V86.9588C107.712 86.0163 108.066 85.1917 108.773 84.4848C109.479 83.778 110.304 83.4246 111.246 83.4246H151.301C152.243 83.4246 153.068 83.778 153.775 84.4848C154.481 85.1917 154.835 86.0163 154.835 86.9588V117.588C154.835 118.531 154.481 119.356 153.775 120.062C153.068 120.769 152.243 121.123 151.301 121.123H111.246ZM111.246 117.588H151.301V86.9588H111.246V117.588Z" fill="#F5F5F5"/>
<defs>
<filter id="filter0_bd_474_36" x="0" y="0" width="262" height="262" filterUnits="userSpaceOnUse" color-interpolation-filters="sRGB">
<feFlood flood-opacity="0" result="BackgroundImageFix"/>
<feGaussianBlur in="BackgroundImageFix" stdDeviation="6"/>
<feComposite in2="SourceAlpha" operator="in" result="effect1_backgroundBlur_474_36"/>
<feColorMatrix in="SourceAlpha" type="matrix" values="0 0 0 0 0 0 0 0 0 0 0 0 0 0 0 0 0 0 127 0" result="hardAlpha"/>
<feOffset dy="12"/>
<feGaussianBlur stdDeviation="17"/>
<feComposite in2="hardAlpha" operator="out"/>
<feColorMatrix type="matrix" values="0 0 0 0 0 0 0 0 0 0 0 0 0 0 0 0 0 0 0.25 0"/>
<feBlend mode="normal" in2="effect1_backgroundBlur_474_36" result="effect2_dropShadow_474_36"/>
<feBlend mode="normal" in="SourceGraphic" in2="effect2_dropShadow_474_36" result="shape"/>
</filter>
<linearGradient id="paint0_linear_474_36" x1="228" y1="216" x2="34" y2="22" gradientUnits="userSpaceOnUse">
<stop stop-color="white" stop-opacity="0.5"/>
<stop offset="1" stop-color="white" stop-opacity="0"/>
<stop offset="1" stop-color="white" stop-opacity="0"/>
</linearGradient>
</defs>
</svg>
