<svg width="65" height="65" viewBox="0 0 65 65" fill="none" xmlns="http://www.w3.org/2000/svg">
<path d="M39.0677 46.4478H52V33.3124H47.9375V42.3853H39.0677V46.4478ZM13.0677 31.6874H17.1302V22.6145H26V18.552H13.0677V31.6874ZM9.47917 54.1666C8.39584 54.1666 7.44792 53.7603 6.63542 52.9478C5.82292 52.1353 5.41667 51.1874 5.41667 50.1041V14.8958C5.41667 13.8124 5.82292 12.8645 6.63542 12.052C7.44792 11.2395 8.39584 10.8333 9.47917 10.8333H55.5208C56.6042 10.8333 57.5521 11.2395 58.3646 12.052C59.1771 12.8645 59.5833 13.8124 59.5833 14.8958V50.1041C59.5833 51.1874 59.1771 52.1353 58.3646 52.9478C57.5521 53.7603 56.6042 54.1666 55.5208 54.1666H9.47917ZM9.47917 50.1041H55.5208V14.8958H9.47917V50.1041Z" fill="#F5F5F5"/>
</svg>
