<svg width="65" height="61" viewBox="0 0 65 61" fill="none" xmlns="http://www.w3.org/2000/svg">
<path d="M12.0685 1.41866C12.8403 0.518225 13.967 0 15.153 0H49.847C51.033 0 52.1597 0.518222 52.9315 1.41866L63.533 13.7871C64.4796 14.8915 65 16.2982 65 17.7528V18.7891C65 24.1177 60.6802 28.4375 55.3516 28.4375C52.2554 28.4375 49.4999 26.9791 47.7344 24.7118C45.9689 26.9791 43.2134 28.4375 40.1172 28.4375C37.021 28.4375 34.2655 26.9791 32.5 24.7118C30.7345 26.9791 27.979 28.4375 24.8828 28.4375C21.7866 28.4375 19.0311 26.9791 17.2656 24.7118C15.5002 26.9791 12.7446 28.4375 9.64844 28.4375C4.31975 28.4375 0 24.1177 0 18.7891V17.7528C0 16.2982 0.520358 14.8915 1.46703 13.7871L12.0685 1.41866ZM19.2969 18.7891C19.2969 21.8741 21.7978 24.375 24.8828 24.375C27.9678 24.375 30.4688 21.8741 30.4688 18.7891C30.4688 17.6672 31.3782 16.7578 32.5 16.7578C33.6218 16.7578 34.5312 17.6672 34.5312 18.7891C34.5312 21.8741 37.0322 24.375 40.1172 24.375C43.2022 24.375 45.7031 21.8741 45.7031 18.7891C45.7031 17.6672 46.6125 16.7578 47.7344 16.7578C48.8562 16.7578 49.7656 17.6672 49.7656 18.7891C49.7656 21.8741 52.2665 24.375 55.3516 24.375C58.4366 24.375 60.9375 21.8741 60.9375 18.7891V17.7528C60.9375 17.2679 60.764 16.799 60.4485 16.4309L49.847 4.0625H15.153L4.55151 16.4309C4.23595 16.799 4.0625 17.2679 4.0625 17.7528V18.7891C4.0625 21.8741 6.56341 24.375 9.64844 24.375C12.7335 24.375 15.2344 21.8741 15.2344 18.7891C15.2344 17.6672 16.1438 16.7578 17.2656 16.7578C18.3875 16.7578 19.2969 17.6672 19.2969 18.7891ZM6.09375 30.4687C7.21558 30.4687 8.125 31.3782 8.125 32.5V56.875H12.1875V36.5625C12.1875 34.3188 14.0063 32.5 16.25 32.5H28.4375C30.6812 32.5 32.5 34.3188 32.5 36.5625V56.875H56.875V32.5C56.875 31.3782 57.7844 30.4687 58.9062 30.4687C60.0281 30.4687 60.9375 31.3782 60.9375 32.5V56.875H62.9688C64.0906 56.875 65 57.7844 65 58.9062C65 60.0281 64.0906 60.9375 62.9688 60.9375H2.03125C0.909422 60.9375 0 60.0281 0 58.9062C0 57.7844 0.909422 56.875 2.03125 56.875H4.0625V32.5C4.0625 31.3782 4.97192 30.4687 6.09375 30.4687ZM16.25 56.875H28.4375V36.5625H16.25V56.875ZM36.5625 36.5625C36.5625 34.3188 38.3813 32.5 40.625 32.5H48.75C50.9937 32.5 52.8125 34.3188 52.8125 36.5625V48.75C52.8125 50.9937 50.9937 52.8125 48.75 52.8125H40.625C38.3813 52.8125 36.5625 50.9937 36.5625 48.75V36.5625ZM48.75 36.5625H40.625V48.75H48.75V36.5625Z" fill="#F5F5F5"/>
</svg>
