<svg width="262" height="262" viewBox="0 0 262 262" fill="none" xmlns="http://www.w3.org/2000/svg">
<g filter="url(#filter0_bd_474_41)">
<rect x="34.5" y="22.5" width="193" height="193" stroke="url(#paint0_linear_474_41)" shape-rendering="crispEdges"/>
</g>
<path d="M91.662 163.109C90.8313 163.109 90.1033 162.945 89.478 162.619C88.862 162.283 88.3813 161.825 88.036 161.247C87.7 160.668 87.532 160.01 87.532 159.273C87.532 158.526 87.6953 157.868 88.022 157.299C88.358 156.72 88.8153 156.267 89.394 155.941C89.982 155.614 90.6493 155.451 91.396 155.451C92.124 155.451 92.7727 155.609 93.342 155.927C93.9113 156.244 94.3593 156.692 94.686 157.271C95.0127 157.849 95.176 158.531 95.176 159.315C95.176 159.389 95.1713 159.473 95.162 159.567C95.162 159.66 95.1573 159.749 95.148 159.833H88.918V158.671H94.224L93.538 159.035C93.5473 158.605 93.4587 158.227 93.272 157.901C93.0853 157.574 92.8287 157.317 92.502 157.131C92.1847 156.944 91.816 156.851 91.396 156.851C90.9667 156.851 90.5887 156.944 90.262 157.131C89.9447 157.317 89.6927 157.579 89.506 157.915C89.3287 158.241 89.24 158.629 89.24 159.077V159.357C89.24 159.805 89.3427 160.201 89.548 160.547C89.7533 160.892 90.0427 161.158 90.416 161.345C90.7893 161.531 91.2187 161.625 91.704 161.625C92.124 161.625 92.502 161.559 92.838 161.429C93.174 161.298 93.4727 161.093 93.734 160.813L94.672 161.891C94.336 162.283 93.9113 162.586 93.398 162.801C92.894 163.006 92.3153 163.109 91.662 163.109ZM101.561 163.151C100.814 163.151 100.119 163.029 99.475 162.787C98.8403 162.535 98.285 162.185 97.809 161.737C97.3423 161.279 96.9783 160.743 96.717 160.127C96.4557 159.511 96.325 158.839 96.325 158.111C96.325 157.383 96.4557 156.711 96.717 156.095C96.9783 155.479 97.347 154.947 97.823 154.499C98.299 154.041 98.8543 153.691 99.489 153.449C100.124 153.197 100.819 153.071 101.575 153.071C102.378 153.071 103.11 153.211 103.773 153.491C104.436 153.761 104.996 154.167 105.453 154.709L104.277 155.815C103.922 155.432 103.526 155.147 103.087 154.961C102.648 154.765 102.172 154.667 101.659 154.667C101.146 154.667 100.674 154.751 100.245 154.919C99.825 155.087 99.4563 155.325 99.139 155.633C98.831 155.941 98.5883 156.305 98.411 156.725C98.243 157.145 98.159 157.607 98.159 158.111C98.159 158.615 98.243 159.077 98.411 159.497C98.5883 159.917 98.831 160.281 99.139 160.589C99.4563 160.897 99.825 161.135 100.245 161.303C100.674 161.471 101.146 161.555 101.659 161.555C102.172 161.555 102.648 161.461 103.087 161.275C103.526 161.079 103.922 160.785 104.277 160.393L105.453 161.513C104.996 162.045 104.436 162.451 103.773 162.731C103.11 163.011 102.373 163.151 101.561 163.151ZM110.102 163.109C109.336 163.109 108.655 162.945 108.058 162.619C107.46 162.283 106.989 161.825 106.644 161.247C106.298 160.668 106.126 160.01 106.126 159.273C106.126 158.526 106.298 157.868 106.644 157.299C106.989 156.72 107.46 156.267 108.058 155.941C108.655 155.614 109.336 155.451 110.102 155.451C110.876 155.451 111.562 155.614 112.16 155.941C112.766 156.267 113.238 156.715 113.574 157.285C113.919 157.854 114.092 158.517 114.092 159.273C114.092 160.01 113.919 160.668 113.574 161.247C113.238 161.825 112.766 162.283 112.16 162.619C111.562 162.945 110.876 163.109 110.102 163.109ZM110.102 161.611C110.531 161.611 110.914 161.517 111.25 161.331C111.586 161.144 111.847 160.873 112.034 160.519C112.23 160.164 112.328 159.749 112.328 159.273C112.328 158.787 112.23 158.372 112.034 158.027C111.847 157.672 111.586 157.401 111.25 157.215C110.914 157.028 110.536 156.935 110.116 156.935C109.686 156.935 109.304 157.028 108.968 157.215C108.641 157.401 108.38 157.672 108.184 158.027C107.988 158.372 107.89 158.787 107.89 159.273C107.89 159.749 107.988 160.164 108.184 160.519C108.38 160.873 108.641 161.144 108.968 161.331C109.304 161.517 109.682 161.611 110.102 161.611ZM125.201 155.451C125.799 155.451 126.326 155.567 126.783 155.801C127.25 156.034 127.614 156.393 127.875 156.879C128.137 157.355 128.267 157.971 128.267 158.727V163.011H126.517V158.951C126.517 158.288 126.373 157.793 126.083 157.467C125.794 157.14 125.379 156.977 124.837 156.977C124.455 156.977 124.114 157.061 123.815 157.229C123.526 157.397 123.297 157.644 123.129 157.971C122.971 158.297 122.891 158.713 122.891 159.217V163.011H121.141V158.951C121.141 158.288 120.997 157.793 120.707 157.467C120.418 157.14 120.003 156.977 119.461 156.977C119.079 156.977 118.738 157.061 118.439 157.229C118.15 157.397 117.921 157.644 117.753 157.971C117.595 158.297 117.515 158.713 117.515 159.217V163.011H115.765V155.535H117.431V157.523L117.137 156.935C117.389 156.449 117.753 156.081 118.229 155.829C118.715 155.577 119.265 155.451 119.881 155.451C120.581 155.451 121.188 155.623 121.701 155.969C122.224 156.314 122.569 156.837 122.737 157.537L122.051 157.299C122.294 156.739 122.695 156.291 123.255 155.955C123.815 155.619 124.464 155.451 125.201 155.451ZM139.939 155.451C140.537 155.451 141.064 155.567 141.521 155.801C141.988 156.034 142.352 156.393 142.613 156.879C142.875 157.355 143.005 157.971 143.005 158.727V163.011H141.255V158.951C141.255 158.288 141.111 157.793 140.821 157.467C140.532 157.14 140.117 156.977 139.575 156.977C139.193 156.977 138.852 157.061 138.553 157.229C138.264 157.397 138.035 157.644 137.867 157.971C137.709 158.297 137.629 158.713 137.629 159.217V163.011H135.879V158.951C135.879 158.288 135.735 157.793 135.445 157.467C135.156 157.14 134.741 156.977 134.199 156.977C133.817 156.977 133.476 157.061 133.177 157.229C132.888 157.397 132.659 157.644 132.491 157.971C132.333 158.297 132.253 158.713 132.253 159.217V163.011H130.503V155.535H132.169V157.523L131.875 156.935C132.127 156.449 132.491 156.081 132.967 155.829C133.453 155.577 134.003 155.451 134.619 155.451C135.319 155.451 135.926 155.623 136.439 155.969C136.962 156.314 137.307 156.837 137.475 157.537L136.789 157.299C137.032 156.739 137.433 156.291 137.993 155.955C138.553 155.619 139.202 155.451 139.939 155.451ZM148.769 163.109C147.939 163.109 147.211 162.945 146.585 162.619C145.969 162.283 145.489 161.825 145.143 161.247C144.807 160.668 144.639 160.01 144.639 159.273C144.639 158.526 144.803 157.868 145.129 157.299C145.465 156.72 145.923 156.267 146.501 155.941C147.089 155.614 147.757 155.451 148.503 155.451C149.231 155.451 149.88 155.609 150.449 155.927C151.019 156.244 151.467 156.692 151.793 157.271C152.12 157.849 152.283 158.531 152.283 159.315C152.283 159.389 152.279 159.473 152.269 159.567C152.269 159.66 152.265 159.749 152.255 159.833H146.025V158.671H151.331L150.645 159.035C150.655 158.605 150.566 158.227 150.379 157.901C150.193 157.574 149.936 157.317 149.609 157.131C149.292 156.944 148.923 156.851 148.503 156.851C148.074 156.851 147.696 156.944 147.369 157.131C147.052 157.317 146.8 157.579 146.613 157.915C146.436 158.241 146.347 158.629 146.347 159.077V159.357C146.347 159.805 146.45 160.201 146.655 160.547C146.861 160.892 147.15 161.158 147.523 161.345C147.897 161.531 148.326 161.625 148.811 161.625C149.231 161.625 149.609 161.559 149.945 161.429C150.281 161.298 150.58 161.093 150.841 160.813L151.779 161.891C151.443 162.283 151.019 162.586 150.505 162.801C150.001 163.006 149.423 163.109 148.769 163.109ZM153.964 163.011V155.535H155.63V157.593L155.434 156.991C155.658 156.487 156.008 156.104 156.484 155.843C156.97 155.581 157.572 155.451 158.29 155.451V157.117C158.216 157.098 158.146 157.089 158.08 157.089C158.015 157.079 157.95 157.075 157.884 157.075C157.222 157.075 156.694 157.271 156.302 157.663C155.91 158.045 155.714 158.619 155.714 159.385V163.011H153.964ZM163.137 163.109C162.353 163.109 161.653 162.945 161.037 162.619C160.43 162.283 159.954 161.825 159.609 161.247C159.263 160.668 159.091 160.01 159.091 159.273C159.091 158.526 159.263 157.868 159.609 157.299C159.954 156.72 160.43 156.267 161.037 155.941C161.653 155.614 162.353 155.451 163.137 155.451C163.865 155.451 164.504 155.6 165.055 155.899C165.615 156.188 166.039 156.617 166.329 157.187L164.985 157.971C164.761 157.616 164.485 157.355 164.159 157.187C163.841 157.019 163.496 156.935 163.123 156.935C162.693 156.935 162.306 157.028 161.961 157.215C161.615 157.401 161.345 157.672 161.149 158.027C160.953 158.372 160.855 158.787 160.855 159.273C160.855 159.758 160.953 160.178 161.149 160.533C161.345 160.878 161.615 161.144 161.961 161.331C162.306 161.517 162.693 161.611 163.123 161.611C163.496 161.611 163.841 161.527 164.159 161.359C164.485 161.191 164.761 160.929 164.985 160.575L166.329 161.359C166.039 161.919 165.615 162.353 165.055 162.661C164.504 162.959 163.865 163.109 163.137 163.109ZM171.246 163.109C170.415 163.109 169.687 162.945 169.062 162.619C168.446 162.283 167.965 161.825 167.62 161.247C167.284 160.668 167.116 160.01 167.116 159.273C167.116 158.526 167.279 157.868 167.606 157.299C167.942 156.72 168.399 156.267 168.978 155.941C169.566 155.614 170.233 155.451 170.98 155.451C171.708 155.451 172.357 155.609 172.926 155.927C173.495 156.244 173.943 156.692 174.27 157.271C174.597 157.849 174.76 158.531 174.76 159.315C174.76 159.389 174.755 159.473 174.746 159.567C174.746 159.66 174.741 159.749 174.732 159.833H168.502V158.671H173.808L173.122 159.035C173.131 158.605 173.043 158.227 172.856 157.901C172.669 157.574 172.413 157.317 172.086 157.131C171.769 156.944 171.4 156.851 170.98 156.851C170.551 156.851 170.173 156.944 169.846 157.131C169.529 157.317 169.277 157.579 169.09 157.915C168.913 158.241 168.824 158.629 168.824 159.077V159.357C168.824 159.805 168.927 160.201 169.132 160.547C169.337 160.892 169.627 161.158 170 161.345C170.373 161.531 170.803 161.625 171.288 161.625C171.708 161.625 172.086 161.559 172.422 161.429C172.758 161.298 173.057 161.093 173.318 160.813L174.256 161.891C173.92 162.283 173.495 162.586 172.982 162.801C172.478 163.006 171.899 163.109 171.246 163.109Z" fill="white"/>
<g clip-path="url(#clip0_474_41)">
<path d="M113.684 78.2559C114.367 77.4588 115.364 77 116.414 77H147.127C148.177 77 149.174 77.4588 149.857 78.2559L159.242 89.205C160.08 90.1826 160.541 91.4279 160.541 92.7156V93.633C160.541 98.3501 156.717 102.174 152 102.174C149.259 102.174 146.82 100.883 145.257 98.876C143.694 100.883 141.254 102.174 138.514 102.174C135.773 102.174 133.333 100.883 131.77 98.876C130.208 100.883 127.768 102.174 125.027 102.174C122.286 102.174 119.847 100.883 118.284 98.876C116.721 100.883 114.282 102.174 111.541 102.174C106.824 102.174 103 98.3501 103 93.633V92.7156C103 91.4279 103.461 90.1826 104.299 89.205L113.684 78.2559ZM120.082 93.633C120.082 96.364 122.296 98.5779 125.027 98.5779C127.758 98.5779 129.972 96.364 129.972 93.633C129.972 92.6398 130.777 91.8348 131.77 91.8348C132.764 91.8348 133.569 92.6398 133.569 93.633C133.569 96.364 135.783 98.5779 138.514 98.5779C141.245 98.5779 143.458 96.364 143.458 93.633C143.458 92.6398 144.264 91.8348 145.257 91.8348C146.25 91.8348 147.055 92.6398 147.055 93.633C147.055 96.364 149.269 98.5779 152 98.5779C154.731 98.5779 156.945 96.364 156.945 93.633V92.7156C156.945 92.2863 156.791 91.8712 156.512 91.5454L147.127 80.5963H116.414L107.029 91.5454C106.75 91.8712 106.596 92.2863 106.596 92.7156V93.633C106.596 96.364 108.81 98.5779 111.541 98.5779C114.272 98.5779 116.486 96.364 116.486 93.633C116.486 92.6398 117.291 91.8348 118.284 91.8348C119.277 91.8348 120.082 92.6398 120.082 93.633ZM108.394 103.972C109.388 103.972 110.193 104.777 110.193 105.77V127.348H113.789V109.367C113.789 107.381 115.399 105.77 117.385 105.77H128.174C130.16 105.77 131.77 107.381 131.77 109.367V127.348H153.348V105.77C153.348 104.777 154.153 103.972 155.146 103.972C156.14 103.972 156.945 104.777 156.945 105.77V127.348H158.743C159.736 127.348 160.541 128.153 160.541 129.146C160.541 130.14 159.736 130.945 158.743 130.945H104.798C103.805 130.945 103 130.14 103 129.146C103 128.153 103.805 127.348 104.798 127.348H106.596V105.77C106.596 104.777 107.401 103.972 108.394 103.972ZM117.385 127.348H128.174V109.367H117.385V127.348ZM135.367 109.367C135.367 107.381 136.977 105.77 138.963 105.77H146.156C148.142 105.77 149.752 107.381 149.752 109.367V120.156C149.752 122.142 148.142 123.752 146.156 123.752H138.963C136.977 123.752 135.367 122.142 135.367 120.156V109.367ZM146.156 109.367H138.963V120.156H146.156V109.367Z" fill="#F5F5F5"/>
</g>
<defs>
<filter id="filter0_bd_474_41" x="0" y="0" width="262" height="262" filterUnits="userSpaceOnUse" color-interpolation-filters="sRGB">
<feFlood flood-opacity="0" result="BackgroundImageFix"/>
<feGaussianBlur in="BackgroundImageFix" stdDeviation="6"/>
<feComposite in2="SourceAlpha" operator="in" result="effect1_backgroundBlur_474_41"/>
<feColorMatrix in="SourceAlpha" type="matrix" values="0 0 0 0 0 0 0 0 0 0 0 0 0 0 0 0 0 0 127 0" result="hardAlpha"/>
<feOffset dy="12"/>
<feGaussianBlur stdDeviation="17"/>
<feComposite in2="hardAlpha" operator="out"/>
<feColorMatrix type="matrix" values="0 0 0 0 0 0 0 0 0 0 0 0 0 0 0 0 0 0 0.25 0"/>
<feBlend mode="normal" in2="effect1_backgroundBlur_474_41" result="effect2_dropShadow_474_41"/>
<feBlend mode="normal" in="SourceGraphic" in2="effect2_dropShadow_474_41" result="shape"/>
</filter>
<linearGradient id="paint0_linear_474_41" x1="228" y1="216" x2="34" y2="22" gradientUnits="userSpaceOnUse">
<stop stop-color="white" stop-opacity="0.5"/>
<stop offset="1" stop-color="white" stop-opacity="0"/>
<stop offset="1" stop-color="white" stop-opacity="0"/>
</linearGradient>
<clipPath id="clip0_474_41">
<rect width="57.541" height="54" fill="white" transform="translate(103 77)"/>
</clipPath>
</defs>
</svg>
