<svg width="360" height="119" viewBox="0 0 360 119" fill="none" xmlns="http://www.w3.org/2000/svg">
<path d="M60.7518 64.0299C36.2128 59.4575 -2.81165 68.7848 -2.81165 68.7848L-18 115.213L370.725 115.119L371.107 76.0108C371.107 76.0108 345.341 70.0871 309.175 69.7347C287.327 69.5218 290.033 52.5299 242.738 56.5476C222.289 58.2846 202.506 76.5263 181.819 76.7044C161.322 76.8808 156.621 63.6909 136.752 60.5905C108.013 56.1061 91.1847 69.7007 60.7518 64.0299Z" fill="url(#paint0_linear_218_217)"/>
<path d="M319.162 9.88427C334.309 2.71939 363.383 0.574428 363.383 0.574428L378.207 115.766L202.982 115.137C202.982 115.137 213.568 101.403 217.789 93.6016C223.328 83.3649 237.464 76.1141 246.833 67.5725C258.837 56.6285 266.091 55.2379 283.984 46.8749C308.913 35.2234 299.107 19.3709 319.162 9.88427Z" fill="url(#paint1_linear_218_217)"/>
<defs>
<linearGradient id="paint0_linear_218_217" x1="177.062" y1="43.3678" x2="173.912" y2="123.188" gradientUnits="userSpaceOnUse">
<stop stop-color="#7C3B34"/>
<stop offset="1" stop-color="#C18C54"/>
</linearGradient>
<linearGradient id="paint1_linear_218_217" x1="298.418" y1="-18.1565" x2="297.955" y2="115.478" gradientUnits="userSpaceOnUse">
<stop stop-color="#946643"/>
<stop offset="1" stop-color="#F7B993"/>
</linearGradient>
</defs>
</svg>
