<svg width="17" height="17" viewBox="0 0 17 17" fill="none" xmlns="http://www.w3.org/2000/svg">
<path d="M8.16339 0.255371C3.65318 0.255371 0.00012207 3.90843 0.00012207 8.41864C0.00012207 12.0309 2.33686 15.0819 5.58175 16.1635C5.98992 16.235 6.14298 15.9901 6.14298 15.7758C6.14298 15.5819 6.13278 14.939 6.13278 14.2554C4.08175 14.6329 3.55114 13.7554 3.38788 13.2962C3.29604 13.0615 2.89808 12.337 2.55114 12.1431C2.26543 11.9901 1.85726 11.6125 2.54094 11.6023C3.1838 11.5921 3.64298 12.1941 3.79604 12.439C4.53073 13.6737 5.7042 13.3268 6.17359 13.1125C6.24502 12.5819 6.45931 12.2248 6.694 12.0207C4.87767 11.8166 2.97971 11.1125 2.97971 7.99006C2.97971 7.10231 3.29604 6.36762 3.81645 5.79619C3.73482 5.59211 3.4491 4.75537 3.89808 3.63292C3.89808 3.63292 4.58175 3.41864 6.14298 4.46966C6.79604 4.28598 7.48992 4.19415 8.1838 4.19415C8.87767 4.19415 9.57155 4.28598 10.2246 4.46966C11.7858 3.40843 12.4695 3.63292 12.4695 3.63292C12.9185 4.75537 12.6328 5.59211 12.5511 5.79619C13.0716 6.36762 13.3879 7.09211 13.3879 7.99006C13.3879 11.1227 11.4797 11.8166 9.66339 12.0207C9.95931 12.2758 10.2144 12.7656 10.2144 13.5309C10.2144 14.6227 10.2042 15.5003 10.2042 15.7758C10.2042 15.9901 10.3573 16.2452 10.7654 16.1635C12.386 15.6165 13.7942 14.5749 14.7918 13.1856C15.7894 11.7963 16.3262 10.129 16.3267 8.41864C16.3267 3.90843 12.6736 0.255371 8.16339 0.255371Z" fill="#F5F5F5"/>
</svg>
