<svg width="17" height="17" viewBox="0 0 17 17" fill="none" xmlns="http://www.w3.org/2000/svg">
<path d="M0.183838 1.4249C0.183838 0.77916 0.720585 0.255371 1.38273 0.255371H15.3115C15.9736 0.255371 16.5104 0.779162 16.5104 1.4249V15.4124C16.5104 16.0583 15.9736 16.5819 15.3115 16.5819L1.38273 16.5819C0.720585 16.5819 0.183838 16.0583 0.183838 15.4124V1.4249ZM5.2281 13.9224V6.55002H2.77767V13.9224H5.2281ZM4.00288 5.54346C4.85739 5.54346 5.38926 4.97734 5.38926 4.26986C5.37333 3.54646 4.85739 2.99606 4.01909 2.99606C3.18087 2.99606 2.63282 3.54646 2.63282 4.26986C2.63282 4.97734 3.16457 5.54346 3.9869 5.54346H4.00288ZM9.0118 13.9224V9.80534C9.0118 9.585 9.02772 9.36488 9.09243 9.20738C9.26957 8.76714 9.67276 8.31119 10.3497 8.31119C11.2364 8.31119 11.5911 8.98726 11.5911 9.97834V13.9224H14.0413V9.69517C14.0413 7.43072 12.8324 6.37703 11.2202 6.37703C9.92034 6.37703 9.33751 7.09146 9.01186 7.59381V7.6192H8.9955C9.00088 7.6108 9.00633 7.60234 9.01186 7.59381V6.55002H6.56146C6.59361 7.2418 6.56146 13.9224 6.56146 13.9224H9.0118Z" fill="#F5F5F5"/>
</svg>
