<svg width="50" height="50" viewBox="0 0 50 50" fill="none" xmlns="http://www.w3.org/2000/svg">
<rect x="1" y="1" width="48" height="48" stroke="#F5F5F5" stroke-width="2"/>
<path d="M20.7928 21V9.8H24.9848C25.9341 9.8 26.7501 9.95467 27.4328 10.264C28.1154 10.5627 28.6381 11 29.0008 11.576C29.3741 12.1413 29.5608 12.8293 29.5608 13.64C29.5608 14.4293 29.3741 15.112 29.0008 15.688C28.6381 16.2533 28.1154 16.6907 27.4328 17C26.7501 17.2987 25.9341 17.448 24.9848 17.448H21.4488L21.9768 16.904V21H20.7928ZM28.4408 21L25.5608 16.936H26.8408L29.7368 21H28.4408ZM21.9768 17L21.4488 16.44H24.9528C26.0728 16.44 26.9208 16.1947 27.4968 15.704C28.0834 15.2133 28.3767 14.5253 28.3767 13.64C28.3767 12.744 28.0834 12.0507 27.4968 11.56C26.9208 11.0693 26.0728 10.824 24.9528 10.824H21.4488L21.9768 10.264V17ZM18.9334 41V29.8H19.9094L25.0294 38.536H24.5174L29.5894 29.8H30.5654V41H29.4294V31.576H29.7014L25.0294 39.576H24.4694L19.7654 31.576H20.0694V41H18.9334Z" fill="#F5F5F5"/>
</svg>
