<svg width="65" height="65" viewBox="0 0 65 65" fill="none" xmlns="http://www.w3.org/2000/svg">
<path d="M23.2917 44.9582L10.8333 32.4999L23.2917 20.0416L26.1354 23.0208L16.6563 32.4999L26.1354 41.9791L23.2917 44.9582ZM13.5417 46.9895H17.6042V52.1353H47.3958V46.9895H51.4583V58.2291C51.4583 59.3124 51.0521 60.2603 50.2396 61.0728C49.4271 61.8853 48.4792 62.2916 47.3958 62.2916H17.6042C16.5208 62.2916 15.5729 61.8853 14.7604 61.0728C13.9479 60.2603 13.5417 59.3124 13.5417 58.2291V46.9895ZM17.6042 17.1978H13.5417V6.77075C13.5417 5.68742 13.9479 4.7395 14.7604 3.927C15.5729 3.1145 16.5208 2.70825 17.6042 2.70825H47.3958C48.4792 2.70825 49.4271 3.1145 50.2396 3.927C51.0521 4.7395 51.4583 5.68742 51.4583 6.77075V17.1978H47.3958V12.8645H17.6042V17.1978ZM17.6042 56.1978V58.2291H47.3958V56.1978H17.6042ZM17.6042 8.802H47.3958V6.77075H17.6042V8.802ZM41.7083 44.9582L38.8646 41.9791L48.3438 32.4999L38.8646 23.0208L41.7083 20.0416L54.1667 32.4999L41.7083 44.9582Z" fill="#F5F5F5"/>
</svg>
