<svg width="262" height="262" viewBox="0 0 262 262" fill="none" xmlns="http://www.w3.org/2000/svg">
<g filter="url(#filter0_bd_474_26)">
<rect x="34.5" y="22.5" width="193" height="193" stroke="url(#paint0_linear_474_26)" shape-rendering="crispEdges"/>
</g>
<path d="M63.316 161.806V152.006H64.814L69.098 159.16H68.314L72.528 152.006H74.026L74.04 161.806H72.318L72.304 154.708H72.668L69.084 160.686H68.272L64.632 154.708H65.052V161.806H63.316ZM79.8791 161.904C79.1138 161.904 78.4324 161.74 77.8351 161.414C77.2378 161.078 76.7664 160.62 76.4211 160.042C76.0758 159.463 75.9031 158.805 75.9031 158.068C75.9031 157.321 76.0758 156.663 76.4211 156.094C76.7664 155.515 77.2378 155.062 77.8351 154.736C78.4324 154.409 79.1138 154.246 79.8791 154.246C80.6538 154.246 81.3398 154.409 81.9371 154.736C82.5438 155.062 83.0151 155.51 83.3511 156.08C83.6964 156.649 83.8691 157.312 83.8691 158.068C83.8691 158.805 83.6964 159.463 83.3511 160.042C83.0151 160.62 82.5438 161.078 81.9371 161.414C81.3398 161.74 80.6538 161.904 79.8791 161.904ZM79.8791 160.406C80.3084 160.406 80.6911 160.312 81.0271 160.126C81.3631 159.939 81.6244 159.668 81.8111 159.314C82.0071 158.959 82.1051 158.544 82.1051 158.068C82.1051 157.582 82.0071 157.167 81.8111 156.822C81.6244 156.467 81.3631 156.196 81.0271 156.01C80.6911 155.823 80.3131 155.73 79.8931 155.73C79.4638 155.73 79.0811 155.823 78.7451 156.01C78.4184 156.196 78.1571 156.467 77.9611 156.822C77.7651 157.167 77.6671 157.582 77.6671 158.068C77.6671 158.544 77.7651 158.959 77.9611 159.314C78.1571 159.668 78.4184 159.939 78.7451 160.126C79.0811 160.312 79.4591 160.406 79.8791 160.406ZM89.6865 161.904C89.0519 161.904 88.4872 161.764 87.9925 161.484C87.4979 161.204 87.1059 160.784 86.8165 160.224C86.5365 159.654 86.3965 158.936 86.3965 158.068C86.3965 157.19 86.5412 156.472 86.8305 155.912C87.1292 155.352 87.5259 154.936 88.0205 154.666C88.5245 154.386 89.0799 154.246 89.6865 154.246C90.4239 154.246 91.0725 154.404 91.6325 154.722C92.2019 155.039 92.6499 155.482 92.9765 156.052C93.3125 156.621 93.4805 157.293 93.4805 158.068C93.4805 158.842 93.3125 159.514 92.9765 160.084C92.6499 160.653 92.2019 161.101 91.6325 161.428C91.0725 161.745 90.4239 161.904 89.6865 161.904ZM85.5425 161.806V151.418H87.2925V156.066L87.1525 158.054L87.2085 160.042V161.806H85.5425ZM89.4905 160.406C89.9105 160.406 90.2839 160.312 90.6105 160.126C90.9465 159.939 91.2125 159.668 91.4085 159.314C91.6045 158.959 91.7025 158.544 91.7025 158.068C91.7025 157.582 91.6045 157.167 91.4085 156.822C91.2125 156.467 90.9465 156.196 90.6105 156.01C90.2839 155.823 89.9105 155.73 89.4905 155.73C89.0705 155.73 88.6925 155.823 88.3565 156.01C88.0205 156.196 87.7545 156.467 87.5585 156.822C87.3625 157.167 87.2645 157.582 87.2645 158.068C87.2645 158.544 87.3625 158.959 87.5585 159.314C87.7545 159.668 88.0205 159.939 88.3565 160.126C88.6925 160.312 89.0705 160.406 89.4905 160.406ZM95.1402 161.806V154.33H96.8902V161.806H95.1402ZM96.0222 153.098C95.6955 153.098 95.4249 152.995 95.2102 152.79C95.0049 152.584 94.9022 152.337 94.9022 152.048C94.9022 151.749 95.0049 151.502 95.2102 151.306C95.4249 151.1 95.6955 150.998 96.0222 150.998C96.3489 150.998 96.6149 151.096 96.8202 151.292C97.0349 151.478 97.1422 151.716 97.1422 152.006C97.1422 152.314 97.0395 152.575 96.8342 152.79C96.6289 152.995 96.3582 153.098 96.0222 153.098ZM99.1871 161.806V151.418H100.937V161.806H99.1871ZM106.748 161.904C105.917 161.904 105.189 161.74 104.564 161.414C103.948 161.078 103.467 160.62 103.122 160.042C102.786 159.463 102.618 158.805 102.618 158.068C102.618 157.321 102.781 156.663 103.108 156.094C103.444 155.515 103.901 155.062 104.48 154.736C105.068 154.409 105.735 154.246 106.482 154.246C107.21 154.246 107.859 154.404 108.428 154.722C108.997 155.039 109.445 155.487 109.772 156.066C110.099 156.644 110.262 157.326 110.262 158.11C110.262 158.184 110.257 158.268 110.248 158.362C110.248 158.455 110.243 158.544 110.234 158.628H104.004V157.466H109.31L108.624 157.83C108.633 157.4 108.545 157.022 108.358 156.696C108.171 156.369 107.915 156.112 107.588 155.926C107.271 155.739 106.902 155.646 106.482 155.646C106.053 155.646 105.675 155.739 105.348 155.926C105.031 156.112 104.779 156.374 104.592 156.71C104.415 157.036 104.326 157.424 104.326 157.872V158.152C104.326 158.6 104.429 158.996 104.634 159.342C104.839 159.687 105.129 159.953 105.502 160.14C105.875 160.326 106.305 160.42 106.79 160.42C107.21 160.42 107.588 160.354 107.924 160.224C108.26 160.093 108.559 159.888 108.82 159.608L109.758 160.686C109.422 161.078 108.997 161.381 108.484 161.596C107.98 161.801 107.401 161.904 106.748 161.904ZM114.594 161.806L119.004 152.006H120.796L125.22 161.806H123.316L119.522 152.972H120.25L116.47 161.806H114.594ZM116.624 159.538L117.114 158.11H122.406L122.896 159.538H116.624ZM130.442 161.904C129.836 161.904 129.28 161.764 128.776 161.484C128.282 161.204 127.885 160.784 127.586 160.224C127.297 159.654 127.152 158.936 127.152 158.068C127.152 157.19 127.292 156.472 127.572 155.912C127.862 155.352 128.254 154.936 128.748 154.666C129.243 154.386 129.808 154.246 130.442 154.246C131.18 154.246 131.828 154.404 132.388 154.722C132.958 155.039 133.406 155.482 133.732 156.052C134.068 156.621 134.236 157.293 134.236 158.068C134.236 158.842 134.068 159.519 133.732 160.098C133.406 160.667 132.958 161.11 132.388 161.428C131.828 161.745 131.18 161.904 130.442 161.904ZM126.298 164.522V154.33H127.964V156.094L127.908 158.082L128.048 160.07V164.522H126.298ZM130.246 160.406C130.666 160.406 131.04 160.312 131.366 160.126C131.702 159.939 131.968 159.668 132.164 159.314C132.36 158.959 132.458 158.544 132.458 158.068C132.458 157.582 132.36 157.167 132.164 156.822C131.968 156.467 131.702 156.196 131.366 156.01C131.04 155.823 130.666 155.73 130.246 155.73C129.826 155.73 129.448 155.823 129.112 156.01C128.776 156.196 128.51 156.467 128.314 156.822C128.118 157.167 128.02 157.582 128.02 158.068C128.02 158.544 128.118 158.959 128.314 159.314C128.51 159.668 128.776 159.939 129.112 160.126C129.448 160.312 129.826 160.406 130.246 160.406ZM140.04 161.904C139.433 161.904 138.878 161.764 138.374 161.484C137.879 161.204 137.483 160.784 137.184 160.224C136.895 159.654 136.75 158.936 136.75 158.068C136.75 157.19 136.89 156.472 137.17 155.912C137.459 155.352 137.851 154.936 138.346 154.666C138.841 154.386 139.405 154.246 140.04 154.246C140.777 154.246 141.426 154.404 141.986 154.722C142.555 155.039 143.003 155.482 143.33 156.052C143.666 156.621 143.834 157.293 143.834 158.068C143.834 158.842 143.666 159.519 143.33 160.098C143.003 160.667 142.555 161.11 141.986 161.428C141.426 161.745 140.777 161.904 140.04 161.904ZM135.896 164.522V154.33H137.562V156.094L137.506 158.082L137.646 160.07V164.522H135.896ZM139.844 160.406C140.264 160.406 140.637 160.312 140.964 160.126C141.3 159.939 141.566 159.668 141.762 159.314C141.958 158.959 142.056 158.544 142.056 158.068C142.056 157.582 141.958 157.167 141.762 156.822C141.566 156.467 141.3 156.196 140.964 156.01C140.637 155.823 140.264 155.73 139.844 155.73C139.424 155.73 139.046 155.823 138.71 156.01C138.374 156.196 138.108 156.467 137.912 156.822C137.716 157.167 137.618 157.582 137.618 158.068C137.618 158.544 137.716 158.959 137.912 159.314C138.108 159.668 138.374 159.939 138.71 160.126C139.046 160.312 139.424 160.406 139.844 160.406ZM149.531 161.806V152.006H153.815C154.879 152.006 155.812 152.211 156.615 152.622C157.418 153.032 158.043 153.602 158.491 154.33C158.939 155.058 159.163 155.916 159.163 156.906C159.163 157.886 158.939 158.744 158.491 159.482C158.043 160.21 157.418 160.779 156.615 161.19C155.812 161.6 154.879 161.806 153.815 161.806H149.531ZM151.351 160.266H153.731C154.468 160.266 155.103 160.126 155.635 159.846C156.176 159.566 156.592 159.174 156.881 158.67C157.18 158.166 157.329 157.578 157.329 156.906C157.329 156.224 157.18 155.636 156.881 155.142C156.592 154.638 156.176 154.246 155.635 153.966C155.103 153.686 154.468 153.546 153.731 153.546H151.351V160.266ZM164.443 161.904C163.613 161.904 162.885 161.74 162.259 161.414C161.643 161.078 161.163 160.62 160.817 160.042C160.481 159.463 160.313 158.805 160.313 158.068C160.313 157.321 160.477 156.663 160.803 156.094C161.139 155.515 161.597 155.062 162.175 154.736C162.763 154.409 163.431 154.246 164.177 154.246C164.905 154.246 165.554 154.404 166.123 154.722C166.693 155.039 167.141 155.487 167.467 156.066C167.794 156.644 167.957 157.326 167.957 158.11C167.957 158.184 167.953 158.268 167.943 158.362C167.943 158.455 167.939 158.544 167.929 158.628H161.699V157.466H167.005L166.319 157.83C166.329 157.4 166.24 157.022 166.053 156.696C165.867 156.369 165.61 156.112 165.283 155.926C164.966 155.739 164.597 155.646 164.177 155.646C163.748 155.646 163.37 155.739 163.043 155.926C162.726 156.112 162.474 156.374 162.287 156.71C162.11 157.036 162.021 157.424 162.021 157.872V158.152C162.021 158.6 162.124 158.996 162.329 159.342C162.535 159.687 162.824 159.953 163.197 160.14C163.571 160.326 164 160.42 164.485 160.42C164.905 160.42 165.283 160.354 165.619 160.224C165.955 160.093 166.254 159.888 166.515 159.608L167.453 160.686C167.117 161.078 166.693 161.381 166.179 161.596C165.675 161.801 165.097 161.904 164.443 161.904ZM171.948 161.904C171.323 161.904 170.721 161.824 170.142 161.666C169.573 161.498 169.12 161.297 168.784 161.064L169.456 159.734C169.792 159.948 170.194 160.126 170.66 160.266C171.127 160.406 171.594 160.476 172.06 160.476C172.611 160.476 173.008 160.401 173.25 160.252C173.502 160.102 173.628 159.902 173.628 159.65C173.628 159.444 173.544 159.29 173.376 159.188C173.208 159.076 172.989 158.992 172.718 158.936C172.448 158.88 172.144 158.828 171.808 158.782C171.482 158.735 171.15 158.674 170.814 158.6C170.488 158.516 170.189 158.399 169.918 158.25C169.648 158.091 169.428 157.881 169.26 157.62C169.092 157.358 169.008 157.013 169.008 156.584C169.008 156.108 169.144 155.697 169.414 155.352C169.685 154.997 170.063 154.726 170.548 154.54C171.043 154.344 171.626 154.246 172.298 154.246C172.802 154.246 173.311 154.302 173.824 154.414C174.338 154.526 174.762 154.684 175.098 154.89L174.426 156.22C174.072 156.005 173.712 155.86 173.348 155.786C172.994 155.702 172.639 155.66 172.284 155.66C171.752 155.66 171.356 155.739 171.094 155.898C170.842 156.056 170.716 156.257 170.716 156.5C170.716 156.724 170.8 156.892 170.968 157.004C171.136 157.116 171.356 157.204 171.626 157.27C171.897 157.335 172.196 157.391 172.522 157.438C172.858 157.475 173.19 157.536 173.516 157.62C173.843 157.704 174.142 157.82 174.412 157.97C174.692 158.11 174.916 158.31 175.084 158.572C175.252 158.833 175.336 159.174 175.336 159.594C175.336 160.06 175.196 160.466 174.916 160.812C174.646 161.157 174.258 161.428 173.754 161.624C173.25 161.81 172.648 161.904 171.948 161.904ZM176.843 161.806V154.33H178.593V161.806H176.843ZM177.725 153.098C177.399 153.098 177.128 152.995 176.913 152.79C176.708 152.584 176.605 152.337 176.605 152.048C176.605 151.749 176.708 151.502 176.913 151.306C177.128 151.1 177.399 150.998 177.725 150.998C178.052 150.998 178.318 151.096 178.523 151.292C178.738 151.478 178.845 151.716 178.845 152.006C178.845 152.314 178.743 152.575 178.537 152.79C178.332 152.995 178.061 153.098 177.725 153.098ZM184.278 164.62C183.588 164.62 182.911 164.526 182.248 164.34C181.595 164.162 181.058 163.901 180.638 163.556L181.422 162.24C181.749 162.51 182.16 162.725 182.654 162.884C183.158 163.052 183.667 163.136 184.18 163.136C185.002 163.136 185.604 162.944 185.986 162.562C186.369 162.188 186.56 161.624 186.56 160.868V159.538L186.7 157.844L186.644 156.15V154.33H188.31V160.672C188.31 162.025 187.965 163.019 187.274 163.654C186.584 164.298 185.585 164.62 184.278 164.62ZM184.054 161.47C183.345 161.47 182.701 161.32 182.122 161.022C181.553 160.714 181.1 160.289 180.764 159.748C180.438 159.206 180.274 158.572 180.274 157.844C180.274 157.125 180.438 156.495 180.764 155.954C181.1 155.412 181.553 154.992 182.122 154.694C182.701 154.395 183.345 154.246 184.054 154.246C184.689 154.246 185.258 154.372 185.762 154.624C186.266 154.876 186.668 155.268 186.966 155.8C187.274 156.332 187.428 157.013 187.428 157.844C187.428 158.674 187.274 159.36 186.966 159.902C186.668 160.434 186.266 160.83 185.762 161.092C185.258 161.344 184.689 161.47 184.054 161.47ZM184.32 159.986C184.759 159.986 185.151 159.897 185.496 159.72C185.842 159.533 186.108 159.281 186.294 158.964C186.49 158.637 186.588 158.264 186.588 157.844C186.588 157.424 186.49 157.055 186.294 156.738C186.108 156.411 185.842 156.164 185.496 155.996C185.151 155.818 184.759 155.73 184.32 155.73C183.882 155.73 183.485 155.818 183.13 155.996C182.785 156.164 182.514 156.411 182.318 156.738C182.132 157.055 182.038 157.424 182.038 157.844C182.038 158.264 182.132 158.637 182.318 158.964C182.514 159.281 182.785 159.533 183.13 159.72C183.485 159.897 183.882 159.986 184.32 159.986ZM194.853 154.246C195.45 154.246 195.982 154.362 196.449 154.596C196.925 154.829 197.298 155.188 197.569 155.674C197.84 156.15 197.975 156.766 197.975 157.522V161.806H196.225V157.746C196.225 157.083 196.066 156.588 195.749 156.262C195.441 155.935 195.007 155.772 194.447 155.772C194.036 155.772 193.672 155.856 193.355 156.024C193.038 156.192 192.79 156.444 192.613 156.78C192.445 157.106 192.361 157.522 192.361 158.026V161.806H190.611V154.33H192.277V156.346L191.983 155.73C192.244 155.254 192.622 154.89 193.117 154.638C193.621 154.376 194.2 154.246 194.853 154.246Z" fill="white"/>
<path d="M123.263 110.699L112.425 99.8613L123.263 89.0231L125.737 91.6148L117.49 99.8613L125.737 108.108L123.263 110.699ZM114.781 112.467H118.315V116.943H144.232V112.467H147.766V122.244C147.766 123.187 147.413 124.012 146.706 124.718C145.999 125.425 145.175 125.779 144.232 125.779H118.315C117.372 125.779 116.548 125.425 115.841 124.718C115.134 124.012 114.781 123.187 114.781 122.244V112.467ZM118.315 86.5491H114.781V77.478C114.781 76.5356 115.134 75.7109 115.841 75.0041C116.548 74.2973 117.372 73.9438 118.315 73.9438H144.232C145.175 73.9438 145.999 74.2973 146.706 75.0041C147.413 75.7109 147.766 76.5356 147.766 77.478V86.5491H144.232V82.7793H118.315V86.5491ZM118.315 120.477V122.244H144.232V120.477H118.315ZM118.315 79.2451H144.232V77.478H118.315V79.2451ZM139.284 110.699L136.81 108.108L145.057 99.8613L136.81 91.6148L139.284 89.0231L150.123 99.8613L139.284 110.699Z" fill="#F5F5F5"/>
<defs>
<filter id="filter0_bd_474_26" x="0" y="0" width="262" height="262" filterUnits="userSpaceOnUse" color-interpolation-filters="sRGB">
<feFlood flood-opacity="0" result="BackgroundImageFix"/>
<feGaussianBlur in="BackgroundImageFix" stdDeviation="6"/>
<feComposite in2="SourceAlpha" operator="in" result="effect1_backgroundBlur_474_26"/>
<feColorMatrix in="SourceAlpha" type="matrix" values="0 0 0 0 0 0 0 0 0 0 0 0 0 0 0 0 0 0 127 0" result="hardAlpha"/>
<feOffset dy="12"/>
<feGaussianBlur stdDeviation="17"/>
<feComposite in2="hardAlpha" operator="out"/>
<feColorMatrix type="matrix" values="0 0 0 0 0 0 0 0 0 0 0 0 0 0 0 0 0 0 0.25 0"/>
<feBlend mode="normal" in2="effect1_backgroundBlur_474_26" result="effect2_dropShadow_474_26"/>
<feBlend mode="normal" in="SourceGraphic" in2="effect2_dropShadow_474_26" result="shape"/>
</filter>
<linearGradient id="paint0_linear_474_26" x1="228" y1="216" x2="34" y2="22" gradientUnits="userSpaceOnUse">
<stop stop-color="white" stop-opacity="0.5"/>
<stop offset="1" stop-color="white" stop-opacity="0"/>
<stop offset="1" stop-color="white" stop-opacity="0"/>
</linearGradient>
</defs>
</svg>
