<svg width="262" height="262" viewBox="0 0 262 262" fill="none" xmlns="http://www.w3.org/2000/svg">
<g filter="url(#filter0_bd_482_34)">
<rect x="34.5" y="22.5" width="193" height="193" stroke="url(#paint0_linear_482_34)" shape-rendering="crispEdges"/>
</g>
<path d="M67.908 162.544C67.1427 162.544 66.438 162.418 65.794 162.166C65.15 161.914 64.59 161.564 64.114 161.116C63.638 160.658 63.2693 160.126 63.008 159.52C62.7467 158.904 62.616 158.232 62.616 157.504C62.616 156.776 62.7467 156.108 63.008 155.502C63.2693 154.886 63.638 154.354 64.114 153.906C64.59 153.448 65.15 153.094 65.794 152.842C66.438 152.59 67.138 152.464 67.894 152.464C68.6593 152.464 69.3593 152.59 69.994 152.842C70.638 153.094 71.198 153.448 71.674 153.906C72.15 154.354 72.5187 154.886 72.78 155.502C73.0413 156.108 73.172 156.776 73.172 157.504C73.172 158.232 73.0413 158.904 72.78 159.52C72.5187 160.136 72.15 160.668 71.674 161.116C71.198 161.564 70.638 161.914 69.994 162.166C69.3593 162.418 68.664 162.544 67.908 162.544ZM67.894 160.948C68.3887 160.948 68.846 160.864 69.266 160.696C69.686 160.528 70.05 160.29 70.358 159.982C70.666 159.664 70.904 159.3 71.072 158.89C71.2493 158.47 71.338 158.008 71.338 157.504C71.338 157 71.2493 156.542 71.072 156.132C70.904 155.712 70.666 155.348 70.358 155.04C70.05 154.722 69.686 154.48 69.266 154.312C68.846 154.144 68.3887 154.06 67.894 154.06C67.3993 154.06 66.942 154.144 66.522 154.312C66.1113 154.48 65.7473 154.722 65.43 155.04C65.122 155.348 64.8793 155.712 64.702 156.132C64.534 156.542 64.45 157 64.45 157.504C64.45 157.998 64.534 158.456 64.702 158.876C64.8793 159.296 65.122 159.664 65.43 159.982C65.738 160.29 66.102 160.528 66.522 160.696C66.942 160.864 67.3993 160.948 67.894 160.948ZM77.8155 162.502C76.9942 162.502 76.3595 162.292 75.9115 161.872C75.4635 161.442 75.2395 160.812 75.2395 159.982V153.276H76.9895V159.94C76.9895 160.294 77.0782 160.57 77.2555 160.766C77.4422 160.962 77.6988 161.06 78.0255 161.06C78.4175 161.06 78.7442 160.957 79.0055 160.752L79.4955 161.998C79.2902 162.166 79.0382 162.292 78.7395 162.376C78.4408 162.46 78.1328 162.502 77.8155 162.502ZM74.0075 156.384V154.984H78.9915V156.384H74.0075ZM80.9351 162.404V154.928H82.6851V162.404H80.9351ZM81.8171 153.696C81.4904 153.696 81.2198 153.593 81.0051 153.388C80.7998 153.182 80.6971 152.935 80.6971 152.646C80.6971 152.347 80.7998 152.1 81.0051 151.904C81.2198 151.698 81.4904 151.596 81.8171 151.596C82.1438 151.596 82.4098 151.694 82.6151 151.89C82.8298 152.076 82.9371 152.314 82.9371 152.604C82.9371 152.912 82.8344 153.173 82.6291 153.388C82.4238 153.593 82.1531 153.696 81.8171 153.696ZM94.418 154.844C95.0153 154.844 95.5427 154.96 96 155.194C96.4667 155.427 96.8307 155.786 97.092 156.272C97.3533 156.748 97.484 157.364 97.484 158.12V162.404H95.734V158.344C95.734 157.681 95.5893 157.186 95.3 156.86C95.0107 156.533 94.5953 156.37 94.054 156.37C93.6713 156.37 93.3307 156.454 93.032 156.622C92.7427 156.79 92.514 157.037 92.346 157.364C92.1873 157.69 92.108 158.106 92.108 158.61V162.404H90.358V158.344C90.358 157.681 90.2133 157.186 89.924 156.86C89.6347 156.533 89.2193 156.37 88.678 156.37C88.2953 156.37 87.9547 156.454 87.656 156.622C87.3667 156.79 87.138 157.037 86.97 157.364C86.8113 157.69 86.732 158.106 86.732 158.61V162.404H84.982V154.928H86.648V156.916L86.354 156.328C86.606 155.842 86.97 155.474 87.446 155.222C87.9313 154.97 88.482 154.844 89.098 154.844C89.798 154.844 90.4047 155.016 90.918 155.362C91.4407 155.707 91.786 156.23 91.954 156.93L91.268 156.692C91.5107 156.132 91.912 155.684 92.472 155.348C93.032 155.012 93.6807 154.844 94.418 154.844ZM99.7203 162.404V154.928H101.47V162.404H99.7203ZM100.602 153.696C100.276 153.696 100.005 153.593 99.7903 153.388C99.5849 153.182 99.4823 152.935 99.4823 152.646C99.4823 152.347 99.5849 152.1 99.7903 151.904C100.005 151.698 100.276 151.596 100.602 151.596C100.929 151.596 101.195 151.694 101.4 151.89C101.615 152.076 101.722 152.314 101.722 152.604C101.722 152.912 101.62 153.173 101.414 153.388C101.209 153.593 100.938 153.696 100.602 153.696ZM103.151 162.404V161.298L107.757 155.726L108.079 156.328H103.235V154.928H109.479V156.034L104.873 161.606L104.523 161.004H109.605V162.404H103.151ZM115.824 162.404V160.892L115.726 160.57V157.924C115.726 157.41 115.572 157.014 115.264 156.734C114.956 156.444 114.49 156.3 113.864 156.3C113.444 156.3 113.029 156.365 112.618 156.496C112.217 156.626 111.876 156.808 111.596 157.042L110.91 155.768C111.312 155.46 111.788 155.231 112.338 155.082C112.898 154.923 113.477 154.844 114.074 154.844C115.157 154.844 115.992 155.105 116.58 155.628C117.178 156.141 117.476 156.939 117.476 158.022V162.404H115.824ZM113.472 162.502C112.912 162.502 112.422 162.408 112.002 162.222C111.582 162.026 111.256 161.76 111.022 161.424C110.798 161.078 110.686 160.691 110.686 160.262C110.686 159.842 110.784 159.464 110.98 159.128C111.186 158.792 111.517 158.526 111.974 158.33C112.432 158.134 113.038 158.036 113.794 158.036H115.964V159.198H113.92C113.323 159.198 112.922 159.296 112.716 159.492C112.511 159.678 112.408 159.912 112.408 160.192C112.408 160.509 112.534 160.761 112.786 160.948C113.038 161.134 113.388 161.228 113.836 161.228C114.266 161.228 114.648 161.13 114.984 160.934C115.33 160.738 115.577 160.448 115.726 160.066L116.02 161.116C115.852 161.554 115.549 161.895 115.11 162.138C114.681 162.38 114.135 162.502 113.472 162.502ZM122.9 162.502C122.181 162.502 121.533 162.343 120.954 162.026C120.385 161.699 119.937 161.251 119.61 160.682C119.283 160.112 119.12 159.44 119.12 158.666C119.12 157.891 119.283 157.219 119.61 156.65C119.937 156.08 120.385 155.637 120.954 155.32C121.533 155.002 122.181 154.844 122.9 154.844C123.525 154.844 124.085 154.984 124.58 155.264C125.075 155.534 125.467 155.95 125.756 156.51C126.045 157.07 126.19 157.788 126.19 158.666C126.19 159.534 126.05 160.252 125.77 160.822C125.49 161.382 125.103 161.802 124.608 162.082C124.113 162.362 123.544 162.502 122.9 162.502ZM123.11 161.004C123.53 161.004 123.903 160.91 124.23 160.724C124.566 160.537 124.832 160.266 125.028 159.912C125.233 159.557 125.336 159.142 125.336 158.666C125.336 158.18 125.233 157.765 125.028 157.42C124.832 157.065 124.566 156.794 124.23 156.608C123.903 156.421 123.53 156.328 123.11 156.328C122.69 156.328 122.312 156.421 121.976 156.608C121.649 156.794 121.383 157.065 121.178 157.42C120.982 157.765 120.884 158.18 120.884 158.666C120.884 159.142 120.982 159.557 121.178 159.912C121.383 160.266 121.649 160.537 121.976 160.724C122.312 160.91 122.69 161.004 123.11 161.004ZM125.378 162.404V160.64L125.448 158.652L125.308 156.664V152.016H127.044V162.404H125.378ZM132.707 162.502C131.942 162.502 131.261 162.338 130.663 162.012C130.066 161.676 129.595 161.218 129.249 160.64C128.904 160.061 128.731 159.403 128.731 158.666C128.731 157.919 128.904 157.261 129.249 156.692C129.595 156.113 130.066 155.66 130.663 155.334C131.261 155.007 131.942 154.844 132.707 154.844C133.482 154.844 134.168 155.007 134.765 155.334C135.372 155.66 135.843 156.108 136.179 156.678C136.525 157.247 136.697 157.91 136.697 158.666C136.697 159.403 136.525 160.061 136.179 160.64C135.843 161.218 135.372 161.676 134.765 162.012C134.168 162.338 133.482 162.502 132.707 162.502ZM132.707 161.004C133.137 161.004 133.519 160.91 133.855 160.724C134.191 160.537 134.453 160.266 134.639 159.912C134.835 159.557 134.933 159.142 134.933 158.666C134.933 158.18 134.835 157.765 134.639 157.42C134.453 157.065 134.191 156.794 133.855 156.608C133.519 156.421 133.141 156.328 132.721 156.328C132.292 156.328 131.909 156.421 131.573 156.608C131.247 156.794 130.985 157.065 130.789 157.42C130.593 157.765 130.495 158.18 130.495 158.666C130.495 159.142 130.593 159.557 130.789 159.912C130.985 160.266 131.247 160.537 131.573 160.724C131.909 160.91 132.287 161.004 132.707 161.004ZM138.371 162.404V154.928H140.037V156.986L139.841 156.384C140.065 155.88 140.415 155.497 140.891 155.236C141.376 154.974 141.978 154.844 142.697 154.844V156.51C142.622 156.491 142.552 156.482 142.487 156.482C142.421 156.472 142.356 156.468 142.291 156.468C141.628 156.468 141.101 156.664 140.709 157.056C140.317 157.438 140.121 158.012 140.121 158.778V162.404H138.371ZM151.283 162.502C150.564 162.502 149.915 162.343 149.337 162.026C148.767 161.699 148.319 161.251 147.993 160.682C147.666 160.112 147.503 159.44 147.503 158.666C147.503 157.891 147.666 157.219 147.993 156.65C148.319 156.08 148.767 155.637 149.337 155.32C149.915 155.002 150.564 154.844 151.283 154.844C151.908 154.844 152.468 154.984 152.963 155.264C153.457 155.534 153.849 155.95 154.139 156.51C154.428 157.07 154.573 157.788 154.573 158.666C154.573 159.534 154.433 160.252 154.153 160.822C153.873 161.382 153.485 161.802 152.991 162.082C152.496 162.362 151.927 162.502 151.283 162.502ZM151.493 161.004C151.913 161.004 152.286 160.91 152.613 160.724C152.949 160.537 153.215 160.266 153.411 159.912C153.616 159.557 153.719 159.142 153.719 158.666C153.719 158.18 153.616 157.765 153.411 157.42C153.215 157.065 152.949 156.794 152.613 156.608C152.286 156.421 151.913 156.328 151.493 156.328C151.073 156.328 150.695 156.421 150.359 156.608C150.032 156.794 149.766 157.065 149.561 157.42C149.365 157.765 149.267 158.18 149.267 158.666C149.267 159.142 149.365 159.557 149.561 159.912C149.766 160.266 150.032 160.537 150.359 160.724C150.695 160.91 151.073 161.004 151.493 161.004ZM153.761 162.404V160.64L153.831 158.652L153.691 156.664V152.016H155.427V162.404H153.761ZM161.244 162.502C160.413 162.502 159.685 162.338 159.06 162.012C158.444 161.676 157.963 161.218 157.618 160.64C157.282 160.061 157.114 159.403 157.114 158.666C157.114 157.919 157.277 157.261 157.604 156.692C157.94 156.113 158.397 155.66 158.976 155.334C159.564 155.007 160.231 154.844 160.978 154.844C161.706 154.844 162.355 155.002 162.924 155.32C163.493 155.637 163.941 156.085 164.268 156.664C164.595 157.242 164.758 157.924 164.758 158.708C164.758 158.782 164.753 158.866 164.744 158.96C164.744 159.053 164.739 159.142 164.73 159.226H158.5V158.064H163.806L163.12 158.428C163.129 157.998 163.041 157.62 162.854 157.294C162.667 156.967 162.411 156.71 162.084 156.524C161.767 156.337 161.398 156.244 160.978 156.244C160.549 156.244 160.171 156.337 159.844 156.524C159.527 156.71 159.275 156.972 159.088 157.308C158.911 157.634 158.822 158.022 158.822 158.47V158.75C158.822 159.198 158.925 159.594 159.13 159.94C159.335 160.285 159.625 160.551 159.998 160.738C160.371 160.924 160.801 161.018 161.286 161.018C161.706 161.018 162.084 160.952 162.42 160.822C162.756 160.691 163.055 160.486 163.316 160.206L164.254 161.284C163.918 161.676 163.493 161.979 162.98 162.194C162.476 162.399 161.897 162.502 161.244 162.502ZM173.514 162.544C172.749 162.544 172.016 162.436 171.316 162.222C170.616 161.998 170.061 161.713 169.65 161.368L170.28 159.954C170.672 160.262 171.157 160.518 171.736 160.724C172.315 160.929 172.907 161.032 173.514 161.032C174.027 161.032 174.443 160.976 174.76 160.864C175.077 160.752 175.311 160.602 175.46 160.416C175.609 160.22 175.684 160 175.684 159.758C175.684 159.459 175.577 159.221 175.362 159.044C175.147 158.857 174.867 158.712 174.522 158.61C174.186 158.498 173.808 158.395 173.388 158.302C172.977 158.208 172.562 158.101 172.142 157.98C171.731 157.849 171.353 157.686 171.008 157.49C170.672 157.284 170.397 157.014 170.182 156.678C169.967 156.342 169.86 155.912 169.86 155.39C169.86 154.858 170 154.372 170.28 153.934C170.569 153.486 171.003 153.131 171.582 152.87C172.17 152.599 172.912 152.464 173.808 152.464C174.396 152.464 174.979 152.538 175.558 152.688C176.137 152.837 176.641 153.052 177.07 153.332L176.496 154.746C176.057 154.484 175.605 154.293 175.138 154.172C174.671 154.041 174.223 153.976 173.794 153.976C173.29 153.976 172.879 154.036 172.562 154.158C172.254 154.279 172.025 154.438 171.876 154.634C171.736 154.83 171.666 155.054 171.666 155.306C171.666 155.604 171.769 155.847 171.974 156.034C172.189 156.211 172.464 156.351 172.8 156.454C173.145 156.556 173.528 156.659 173.948 156.762C174.368 156.855 174.783 156.962 175.194 157.084C175.614 157.205 175.992 157.364 176.328 157.56C176.673 157.756 176.949 158.022 177.154 158.358C177.369 158.694 177.476 159.118 177.476 159.632C177.476 160.154 177.331 160.64 177.042 161.088C176.762 161.526 176.328 161.881 175.74 162.152C175.152 162.413 174.41 162.544 173.514 162.544ZM180.961 156.678H185.833V158.176H180.961V156.678ZM181.101 160.878H186.631V162.404H179.281V152.604H186.435V154.13H181.101V160.878ZM193.252 162.544C192.486 162.544 191.782 162.418 191.138 162.166C190.494 161.914 189.934 161.564 189.458 161.116C188.982 160.658 188.613 160.126 188.352 159.52C188.09 158.904 187.96 158.232 187.96 157.504C187.96 156.776 188.09 156.108 188.352 155.502C188.613 154.886 188.982 154.354 189.458 153.906C189.934 153.448 190.494 153.094 191.138 152.842C191.782 152.59 192.482 152.464 193.238 152.464C194.003 152.464 194.703 152.59 195.338 152.842C195.982 153.094 196.542 153.448 197.018 153.906C197.494 154.354 197.862 154.886 198.124 155.502C198.385 156.108 198.516 156.776 198.516 157.504C198.516 158.232 198.385 158.904 198.124 159.52C197.862 160.136 197.494 160.668 197.018 161.116C196.542 161.564 195.982 161.914 195.338 162.166C194.703 162.418 194.008 162.544 193.252 162.544ZM193.238 160.948C193.732 160.948 194.19 160.864 194.61 160.696C195.03 160.528 195.394 160.29 195.702 159.982C196.01 159.664 196.248 159.3 196.416 158.89C196.593 158.47 196.682 158.008 196.682 157.504C196.682 157 196.593 156.542 196.416 156.132C196.248 155.712 196.01 155.348 195.702 155.04C195.394 154.722 195.03 154.48 194.61 154.312C194.19 154.144 193.732 154.06 193.238 154.06C192.743 154.06 192.286 154.144 191.866 154.312C191.455 154.48 191.091 154.722 190.774 155.04C190.466 155.348 190.223 155.712 190.046 156.132C189.878 156.542 189.794 157 189.794 157.504C189.794 157.998 189.878 158.456 190.046 158.876C190.223 159.296 190.466 159.664 190.774 159.982C191.082 160.29 191.446 160.528 191.866 160.696C192.286 160.864 192.743 160.948 193.238 160.948Z" fill="white"/>
<path d="M109.963 96.4922L117.5 99.7198C118.353 97.9984 119.265 96.301 120.237 94.6274C121.209 92.9539 122.24 91.3521 123.33 89.822L117.713 88.6745L109.963 96.4922ZM120.912 102.302L130.369 111.841C133.071 110.598 135.606 109.187 137.976 107.609C140.346 106.031 142.266 104.501 143.735 103.019C147.575 99.146 150.395 95.1773 152.196 91.113C153.998 87.0488 154.969 82.4585 155.111 77.3423C150.04 77.4857 145.489 78.4659 141.46 80.2829C137.431 82.0999 133.497 84.9449 129.658 88.8179C128.188 90.3002 126.672 92.2367 125.107 94.6274C123.543 97.0182 122.145 99.5763 120.912 102.302ZM137.194 95.4164C136.246 94.4601 135.772 93.2767 135.772 91.8661C135.772 90.4556 136.246 89.2722 137.194 88.3159C138.142 87.3596 139.315 86.8814 140.714 86.8814C142.112 86.8814 143.285 87.3596 144.233 88.3159C145.181 89.2722 145.655 90.4556 145.655 91.8661C145.655 93.2767 145.181 94.4601 144.233 95.4164C143.285 96.3727 142.112 96.8509 140.714 96.8509C139.315 96.8509 138.142 96.3727 137.194 95.4164ZM136.128 122.886L143.878 115.068L142.74 109.402C141.223 110.502 139.635 111.542 137.976 112.522C136.317 113.502 134.635 114.423 132.928 115.284L136.128 122.886ZM159.306 73.1107C159.733 79.6135 158.927 85.5426 156.889 90.8979C154.851 96.2532 151.485 101.298 146.793 106.031L146.651 106.175L146.508 106.318L148.073 114.208C148.215 114.925 148.179 115.618 147.966 116.288C147.753 116.957 147.385 117.555 146.864 118.081L134.706 130.417L128.662 116.216L116.575 104.023L102.498 97.9267L114.727 85.6621C115.248 85.1362 115.841 84.7656 116.504 84.5504C117.168 84.3353 117.855 84.2994 118.566 84.4428L126.387 86.0207C126.435 85.9729 126.482 85.9371 126.529 85.9131C126.577 85.8892 126.624 85.8534 126.672 85.8056C131.364 81.0719 136.365 77.665 141.674 75.5851C146.982 73.5051 152.86 72.6803 159.306 73.1107ZM107.261 112.702C108.92 111.028 110.947 110.179 113.34 110.155C115.734 110.131 117.76 110.956 119.419 112.63C121.078 114.303 121.896 116.347 121.872 118.762C121.849 121.177 121.007 123.221 119.348 124.894C118.116 126.138 116.208 127.166 113.625 127.978C111.042 128.791 107.167 129.556 102 130.274C102.711 125.062 103.458 121.141 104.24 118.511C105.022 115.881 106.029 113.945 107.261 112.702ZM110.248 115.786C109.584 116.503 108.991 117.627 108.47 119.157C107.949 120.687 107.498 122.647 107.119 125.038C109.489 124.655 111.433 124.201 112.949 123.675C114.466 123.149 115.58 122.551 116.291 121.882C117.192 121.069 117.654 120.053 117.677 118.834C117.701 117.615 117.286 116.551 116.433 115.642C115.533 114.782 114.478 114.363 113.269 114.387C112.061 114.411 111.053 114.877 110.248 115.786Z" fill="#F5F5F5"/>
<defs>
<filter id="filter0_bd_482_34" x="0" y="0" width="262" height="262" filterUnits="userSpaceOnUse" color-interpolation-filters="sRGB">
<feFlood flood-opacity="0" result="BackgroundImageFix"/>
<feGaussianBlur in="BackgroundImageFix" stdDeviation="6"/>
<feComposite in2="SourceAlpha" operator="in" result="effect1_backgroundBlur_482_34"/>
<feColorMatrix in="SourceAlpha" type="matrix" values="0 0 0 0 0 0 0 0 0 0 0 0 0 0 0 0 0 0 127 0" result="hardAlpha"/>
<feOffset dy="12"/>
<feGaussianBlur stdDeviation="17"/>
<feComposite in2="hardAlpha" operator="out"/>
<feColorMatrix type="matrix" values="0 0 0 0 0 0 0 0 0 0 0 0 0 0 0 0 0 0 0.25 0"/>
<feBlend mode="normal" in2="effect1_backgroundBlur_482_34" result="effect2_dropShadow_482_34"/>
<feBlend mode="normal" in="SourceGraphic" in2="effect2_dropShadow_482_34" result="shape"/>
</filter>
<linearGradient id="paint0_linear_482_34" x1="228" y1="216" x2="34" y2="22" gradientUnits="userSpaceOnUse">
<stop stop-color="white" stop-opacity="0.5"/>
<stop offset="1" stop-color="white" stop-opacity="0"/>
<stop offset="1" stop-color="white" stop-opacity="0"/>
</linearGradient>
</defs>
</svg>
