<svg width="66" height="65" viewBox="0 0 66 65" fill="none" xmlns="http://www.w3.org/2000/svg">
<path d="M9.09383 26.5948L17.7005 30.2486C18.6748 28.2999 19.7168 26.3783 20.8265 24.4837C21.9362 22.5892 23.1135 20.7758 24.3585 19.0437L17.9441 17.7446L9.09383 26.5948ZM21.5978 33.1716L32.3968 43.9705C35.4822 42.5631 38.3781 40.9663 41.0846 39.18C43.7911 37.3937 45.9834 35.6616 47.6614 33.9835C52.0459 29.599 55.2667 25.1062 57.3236 20.5052C59.3805 15.9041 60.4902 10.7077 60.6526 4.91577C54.8607 5.07816 49.6642 6.18782 45.0632 8.24476C40.4621 10.3017 35.9693 13.5224 31.5848 17.907C29.9068 19.585 28.1746 21.7772 26.3883 24.4837C24.6021 27.1902 23.0052 30.0862 21.5978 33.1716ZM40.1915 25.3769C39.1089 24.2943 38.5676 22.9546 38.5676 21.3577C38.5676 19.7609 39.1089 18.4212 40.1915 17.3386C41.2741 16.256 42.6138 15.7147 44.2106 15.7147C45.8075 15.7147 47.1472 16.256 48.2298 17.3386C49.3124 18.4212 49.8537 19.7609 49.8537 21.3577C49.8537 22.9546 49.3124 24.2943 48.2298 25.3769C47.1472 26.4595 45.8075 27.0008 44.2106 27.0008C42.6138 27.0008 41.2741 26.4595 40.1915 25.3769ZM38.9736 56.4745L47.8238 47.6243L46.5247 41.2099C44.7925 42.4549 42.9792 43.6322 41.0846 44.7419C39.1901 45.8515 37.2685 46.8935 35.3198 47.8679L38.9736 56.4745ZM65.4431 0.125272C65.9303 7.48694 65.0101 14.1991 62.6825 20.2616C60.3549 26.3242 56.5117 32.0349 51.1528 37.3937L50.9904 37.5561L50.828 37.7185L52.6143 46.65C52.7767 47.4619 52.7361 48.2468 52.4925 49.0046C52.2489 49.7624 51.8294 50.439 51.234 51.0345L37.3497 65L30.4481 48.9234L16.645 35.1203L0.568364 28.2187L14.5339 14.3344C15.1293 13.739 15.8059 13.3194 16.5638 13.0759C17.3216 12.8323 18.1065 12.7917 18.9184 12.9541L27.8499 14.7404C27.904 14.6862 27.9581 14.6456 28.0122 14.6186C28.0664 14.5915 28.1205 14.5509 28.1746 14.4968C33.5335 9.13791 39.2442 5.28115 45.3068 2.9265C51.3693 0.571844 58.0814 -0.361897 65.4431 0.125272ZM6.00842 44.9449C7.90297 43.0503 10.217 42.0895 12.9506 42.0624C15.6841 42.0354 17.9982 42.9691 19.8928 44.8637C21.7873 46.7582 22.721 49.0723 22.694 51.8058C22.6669 54.5394 21.7061 56.8534 19.8116 58.748C18.4042 60.1554 16.2254 61.3192 13.2754 62.2394C10.3253 63.1596 5.90016 64.0257 0 64.8376C0.811949 58.9374 1.6645 54.4988 2.55764 51.5216C3.45078 48.5445 4.60104 46.3522 6.00842 44.9449ZM9.41861 48.4362C8.66079 49.2482 7.98417 50.5202 7.38874 52.2524C6.79331 53.9846 6.27907 56.2039 5.84603 58.9104C8.55253 58.4773 10.7719 57.9631 12.504 57.3677C14.2362 56.7723 15.5082 56.0956 16.3202 55.3378C17.3486 54.4176 17.8764 53.2673 17.9035 51.887C17.9305 50.5067 17.4569 49.3023 16.4826 48.2739C15.4541 47.2995 14.2497 46.8259 12.8694 46.8529C11.4891 46.88 10.3388 47.4078 9.41861 48.4362Z" fill="#F5F5F5"/>
</svg>
