<svg width="32" height="32" viewBox="0 0 32 32" fill="none" xmlns="http://www.w3.org/2000/svg">
<path d="M32 16C32 24.8366 24.8366 32 16 32C7.16344 32 0 24.8366 0 16C0 7.16344 7.16344 0 16 0C24.8366 0 32 7.16344 32 16ZM16.5734 11.812C15.0172 12.4593 11.9069 13.799 7.2426 15.8312C6.48519 16.1324 6.08842 16.427 6.05231 16.7151C5.99126 17.2021 6.60103 17.3938 7.43138 17.6549C7.54433 17.6904 7.66136 17.7272 7.78133 17.7662C8.59826 18.0318 9.69718 18.3424 10.2685 18.3548C10.7867 18.366 11.3651 18.1523 12.0036 17.7138C16.3616 14.7721 18.6113 13.2852 18.7525 13.2531C18.8521 13.2305 18.9902 13.202 19.0838 13.2852C19.1773 13.3684 19.1681 13.5258 19.1582 13.5681C19.0978 13.8256 16.7042 16.0509 15.4656 17.2024C15.0794 17.5614 14.8055 17.8161 14.7495 17.8742C14.6241 18.0045 14.4962 18.1278 14.3734 18.2462C13.6144 18.9778 13.0453 19.5265 14.4049 20.4224C15.0583 20.853 15.5811 21.209 16.1027 21.5642C16.6723 21.9522 17.2405 22.3391 17.9756 22.8209C18.1628 22.9437 18.3417 23.0712 18.5159 23.1954C19.1788 23.668 19.7744 24.0926 20.5102 24.0249C20.9377 23.9855 21.3794 23.5835 21.6036 22.3845C22.1337 19.5509 23.1756 13.4113 23.4164 10.8814C23.4375 10.6597 23.4109 10.376 23.3896 10.2515C23.3683 10.127 23.3238 9.94956 23.1619 9.81821C22.9702 9.66266 22.6743 9.62986 22.5419 9.63219C21.9401 9.64279 21.0168 9.96384 16.5734 11.812Z" fill="#F5F5F5"/>
</svg>
