<svg width="17" height="17" viewBox="0 0 17 17" fill="none" xmlns="http://www.w3.org/2000/svg">
<path d="M16.694 8.41864C16.694 12.9271 13.0391 16.5819 8.5307 16.5819C4.02225 16.5819 0.367432 12.9271 0.367432 8.41864C0.367432 3.91019 4.02225 0.255371 8.5307 0.255371C13.0391 0.255371 16.694 3.91019 16.694 8.41864ZM8.82327 6.28189C8.02927 6.61214 6.4424 7.29568 4.06264 8.33249C3.6762 8.48617 3.47377 8.6365 3.45534 8.7835C3.4242 9.03193 3.73531 9.12976 4.15895 9.26297C4.21658 9.28109 4.27629 9.29986 4.3375 9.31976C4.7543 9.45525 5.31497 9.61375 5.60644 9.62005C5.87084 9.62576 6.16593 9.51676 6.49172 9.29305C8.7152 7.79214 9.86297 7.03351 9.93503 7.01715C9.98587 7.00562 10.0563 6.99111 10.104 7.03353C10.1518 7.07596 10.1471 7.1563 10.142 7.17786C10.1112 7.30924 8.89001 8.44458 8.25803 9.03212C8.06102 9.21528 7.92126 9.34521 7.8927 9.37488C7.8287 9.44135 7.76348 9.50422 7.70079 9.56465C7.31357 9.93794 7.02319 10.2179 7.71687 10.675C8.05022 10.8947 8.31697 11.0763 8.58309 11.2575C8.87371 11.4555 9.16359 11.6529 9.53864 11.8987C9.63419 11.9613 9.72545 12.0264 9.81433 12.0898C10.1526 12.3309 10.4564 12.5475 10.8318 12.513C11.05 12.4929 11.2753 12.2878 11.3897 11.676C11.6601 10.2303 12.1917 7.09789 12.3146 5.80709C12.3253 5.694 12.3118 5.54927 12.3009 5.48573C12.29 5.4222 12.2673 5.33168 12.1847 5.26466C12.0869 5.1853 11.9359 5.16857 11.8684 5.16976C11.5614 5.17516 11.0903 5.33896 8.82327 6.28189Z" fill="#F5F5F5"/>
</svg>
