<svg width="262" height="262" viewBox="0 0 262 262" fill="none" xmlns="http://www.w3.org/2000/svg">
<g filter="url(#filter0_bd_474_31)">
<rect x="34.5" y="22.5" width="193" height="193" stroke="url(#paint0_linear_474_31)" shape-rendering="crispEdges"/>
</g>
<path d="M72.304 162.403V154.143H69.056V152.603H77.372V154.143H74.124V162.403H72.304ZM81.3183 162.501C80.4876 162.501 79.7596 162.338 79.1343 162.011C78.5183 161.675 78.0376 161.218 77.6923 160.639C77.3563 160.061 77.1883 159.403 77.1883 158.665C77.1883 157.919 77.3516 157.261 77.6783 156.691C78.0143 156.113 78.4716 155.66 79.0503 155.333C79.6383 155.007 80.3056 154.843 81.0523 154.843C81.7803 154.843 82.4289 155.002 82.9983 155.319C83.5676 155.637 84.0156 156.085 84.3423 156.663C84.6689 157.242 84.8323 157.923 84.8323 158.707C84.8323 158.782 84.8276 158.866 84.8183 158.959C84.8183 159.053 84.8136 159.141 84.8043 159.225H78.5743V158.063H83.8803L83.1943 158.427C83.2036 157.998 83.1149 157.62 82.9283 157.293C82.7416 156.967 82.4849 156.71 82.1583 156.523C81.8409 156.337 81.4723 156.243 81.0523 156.243C80.6229 156.243 80.2449 156.337 79.9183 156.523C79.6009 156.71 79.3489 156.971 79.1623 157.307C78.9849 157.634 78.8963 158.021 78.8963 158.469V158.749C78.8963 159.197 78.9989 159.594 79.2043 159.939C79.4096 160.285 79.6989 160.551 80.0723 160.737C80.4456 160.924 80.8749 161.017 81.3603 161.017C81.7803 161.017 82.1583 160.952 82.4943 160.821C82.8303 160.691 83.1289 160.485 83.3903 160.205L84.3283 161.283C83.9923 161.675 83.5676 161.979 83.0543 162.193C82.5503 162.399 81.9716 162.501 81.3183 162.501ZM88.8232 162.501C88.1979 162.501 87.5959 162.422 87.0172 162.263C86.4479 162.095 85.9952 161.895 85.6592 161.661L86.3312 160.331C86.6672 160.546 87.0686 160.723 87.5352 160.863C88.0019 161.003 88.4686 161.073 88.9352 161.073C89.4859 161.073 89.8826 160.999 90.1252 160.849C90.3772 160.7 90.5032 160.499 90.5032 160.247C90.5032 160.042 90.4192 159.888 90.2512 159.785C90.0832 159.673 89.8639 159.589 89.5932 159.533C89.3226 159.477 89.0192 159.426 88.6832 159.379C88.3566 159.333 88.0252 159.272 87.6892 159.197C87.3626 159.113 87.0639 158.997 86.7932 158.847C86.5226 158.689 86.3032 158.479 86.1352 158.217C85.9672 157.956 85.8832 157.611 85.8832 157.181C85.8832 156.705 86.0186 156.295 86.2892 155.949C86.5599 155.595 86.9379 155.324 87.4232 155.137C87.9179 154.941 88.5012 154.843 89.1732 154.843C89.6772 154.843 90.1859 154.899 90.6992 155.011C91.2126 155.123 91.6372 155.282 91.9732 155.487L91.3012 156.817C90.9466 156.603 90.5872 156.458 90.2232 156.383C89.8686 156.299 89.5139 156.257 89.1592 156.257C88.6272 156.257 88.2306 156.337 87.9692 156.495C87.7172 156.654 87.5912 156.855 87.5912 157.097C87.5912 157.321 87.6752 157.489 87.8432 157.601C88.0112 157.713 88.2306 157.802 88.5012 157.867C88.7719 157.933 89.0706 157.989 89.3972 158.035C89.7332 158.073 90.0646 158.133 90.3912 158.217C90.7179 158.301 91.0166 158.418 91.2872 158.567C91.5672 158.707 91.7912 158.908 91.9592 159.169C92.1272 159.431 92.2112 159.771 92.2112 160.191C92.2112 160.658 92.0712 161.064 91.7912 161.409C91.5206 161.755 91.1332 162.025 90.6292 162.221C90.1252 162.408 89.5232 162.501 88.8232 162.501ZM96.5323 162.501C95.711 162.501 95.0763 162.291 94.6283 161.871C94.1803 161.442 93.9563 160.812 93.9563 159.981V153.275H95.7063V159.939C95.7063 160.294 95.795 160.569 95.9723 160.765C96.159 160.961 96.4156 161.059 96.7423 161.059C97.1343 161.059 97.461 160.957 97.7223 160.751L98.2123 161.997C98.007 162.165 97.755 162.291 97.4563 162.375C97.1576 162.459 96.8496 162.501 96.5323 162.501ZM92.7243 156.383V154.983H97.7083V156.383H92.7243ZM102.92 162.501C102.089 162.501 101.361 162.338 100.736 162.011C100.12 161.675 99.6391 161.218 99.2938 160.639C98.9578 160.061 98.7898 159.403 98.7898 158.665C98.7898 157.919 98.9531 157.261 99.2798 156.691C99.6158 156.113 100.073 155.66 100.652 155.333C101.24 155.007 101.907 154.843 102.654 154.843C103.382 154.843 104.03 155.002 104.6 155.319C105.169 155.637 105.617 156.085 105.944 156.663C106.27 157.242 106.434 157.923 106.434 158.707C106.434 158.782 106.429 158.866 106.42 158.959C106.42 159.053 106.415 159.141 106.406 159.225H100.176V158.063H105.482L104.796 158.427C104.805 157.998 104.716 157.62 104.53 157.293C104.343 156.967 104.086 156.71 103.76 156.523C103.442 156.337 103.074 156.243 102.654 156.243C102.224 156.243 101.846 156.337 101.52 156.523C101.202 156.71 100.95 156.971 100.764 157.307C100.586 157.634 100.498 158.021 100.498 158.469V158.749C100.498 159.197 100.6 159.594 100.806 159.939C101.011 160.285 101.3 160.551 101.674 160.737C102.047 160.924 102.476 161.017 102.962 161.017C103.382 161.017 103.76 160.952 104.096 160.821C104.432 160.691 104.73 160.485 104.992 160.205L105.93 161.283C105.594 161.675 105.169 161.979 104.656 162.193C104.152 162.399 103.573 162.501 102.92 162.501ZM110.425 162.501C109.799 162.501 109.197 162.422 108.619 162.263C108.049 162.095 107.597 161.895 107.261 161.661L107.933 160.331C108.269 160.546 108.67 160.723 109.137 160.863C109.603 161.003 110.07 161.073 110.537 161.073C111.087 161.073 111.484 160.999 111.727 160.849C111.979 160.7 112.105 160.499 112.105 160.247C112.105 160.042 112.021 159.888 111.853 159.785C111.685 159.673 111.465 159.589 111.195 159.533C110.924 159.477 110.621 159.426 110.285 159.379C109.958 159.333 109.627 159.272 109.291 159.197C108.964 159.113 108.665 158.997 108.395 158.847C108.124 158.689 107.905 158.479 107.737 158.217C107.569 157.956 107.485 157.611 107.485 157.181C107.485 156.705 107.62 156.295 107.891 155.949C108.161 155.595 108.539 155.324 109.025 155.137C109.519 154.941 110.103 154.843 110.775 154.843C111.279 154.843 111.787 154.899 112.301 155.011C112.814 155.123 113.239 155.282 113.575 155.487L112.903 156.817C112.548 156.603 112.189 156.458 111.825 156.383C111.47 156.299 111.115 156.257 110.761 156.257C110.229 156.257 109.832 156.337 109.571 156.495C109.319 156.654 109.193 156.855 109.193 157.097C109.193 157.321 109.277 157.489 109.445 157.601C109.613 157.713 109.832 157.802 110.103 157.867C110.373 157.933 110.672 157.989 110.999 158.035C111.335 158.073 111.666 158.133 111.993 158.217C112.319 158.301 112.618 158.418 112.889 158.567C113.169 158.707 113.393 158.908 113.561 159.169C113.729 159.431 113.813 159.771 113.813 160.191C113.813 160.658 113.673 161.064 113.393 161.409C113.122 161.755 112.735 162.025 112.231 162.221C111.727 162.408 111.125 162.501 110.425 162.501ZM122.353 162.501C121.634 162.501 120.986 162.343 120.407 162.025C119.838 161.699 119.39 161.251 119.063 160.681C118.736 160.112 118.573 159.44 118.573 158.665C118.573 157.891 118.736 157.219 119.063 156.649C119.39 156.08 119.838 155.637 120.407 155.319C120.986 155.002 121.634 154.843 122.353 154.843C122.978 154.843 123.538 154.983 124.033 155.263C124.528 155.534 124.92 155.949 125.209 156.509C125.498 157.069 125.643 157.788 125.643 158.665C125.643 159.533 125.503 160.252 125.223 160.821C124.943 161.381 124.556 161.801 124.061 162.081C123.566 162.361 122.997 162.501 122.353 162.501ZM122.563 161.003C122.983 161.003 123.356 160.91 123.683 160.723C124.019 160.537 124.285 160.266 124.481 159.911C124.686 159.557 124.789 159.141 124.789 158.665C124.789 158.18 124.686 157.765 124.481 157.419C124.285 157.065 124.019 156.794 123.683 156.607C123.356 156.421 122.983 156.327 122.563 156.327C122.143 156.327 121.765 156.421 121.429 156.607C121.102 156.794 120.836 157.065 120.631 157.419C120.435 157.765 120.337 158.18 120.337 158.665C120.337 159.141 120.435 159.557 120.631 159.911C120.836 160.266 121.102 160.537 121.429 160.723C121.765 160.91 122.143 161.003 122.563 161.003ZM124.831 162.403V160.639L124.901 158.651L124.761 156.663V152.015H126.497V162.403H124.831ZM132.314 162.501C131.484 162.501 130.756 162.338 130.13 162.011C129.514 161.675 129.034 161.218 128.688 160.639C128.352 160.061 128.184 159.403 128.184 158.665C128.184 157.919 128.348 157.261 128.674 156.691C129.01 156.113 129.468 155.66 130.046 155.333C130.634 155.007 131.302 154.843 132.048 154.843C132.776 154.843 133.425 155.002 133.994 155.319C134.564 155.637 135.012 156.085 135.338 156.663C135.665 157.242 135.828 157.923 135.828 158.707C135.828 158.782 135.824 158.866 135.814 158.959C135.814 159.053 135.81 159.141 135.8 159.225H129.57V158.063H134.876L134.19 158.427C134.2 157.998 134.111 157.62 133.924 157.293C133.738 156.967 133.481 156.71 133.154 156.523C132.837 156.337 132.468 156.243 132.048 156.243C131.619 156.243 131.241 156.337 130.914 156.523C130.597 156.71 130.345 156.971 130.158 157.307C129.981 157.634 129.892 158.021 129.892 158.469V158.749C129.892 159.197 129.995 159.594 130.2 159.939C130.406 160.285 130.695 160.551 131.068 160.737C131.442 160.924 131.871 161.017 132.356 161.017C132.776 161.017 133.154 160.952 133.49 160.821C133.826 160.691 134.125 160.485 134.386 160.205L135.324 161.283C134.988 161.675 134.564 161.979 134.05 162.193C133.546 162.399 132.968 162.501 132.314 162.501ZM144.542 162.501C143.908 162.501 143.348 162.385 142.862 162.151C142.377 161.909 141.999 161.545 141.728 161.059C141.458 160.565 141.322 159.944 141.322 159.197V154.927H143.072V158.959C143.072 159.631 143.222 160.135 143.52 160.471C143.828 160.798 144.262 160.961 144.822 160.961C145.233 160.961 145.588 160.877 145.886 160.709C146.194 160.541 146.432 160.289 146.6 159.953C146.778 159.617 146.866 159.202 146.866 158.707V154.927H148.616V162.403H146.95V160.387L147.244 161.003C146.992 161.489 146.624 161.862 146.138 162.123C145.653 162.375 145.121 162.501 144.542 162.501ZM153.218 162.501C152.592 162.501 151.99 162.422 151.412 162.263C150.842 162.095 150.39 161.895 150.054 161.661L150.726 160.331C151.062 160.546 151.463 160.723 151.93 160.863C152.396 161.003 152.863 161.073 153.33 161.073C153.88 161.073 154.277 160.999 154.52 160.849C154.772 160.7 154.898 160.499 154.898 160.247C154.898 160.042 154.814 159.888 154.646 159.785C154.478 159.673 154.258 159.589 153.988 159.533C153.717 159.477 153.414 159.426 153.078 159.379C152.751 159.333 152.42 159.272 152.084 159.197C151.757 159.113 151.458 158.997 151.188 158.847C150.917 158.689 150.698 158.479 150.53 158.217C150.362 157.956 150.278 157.611 150.278 157.181C150.278 156.705 150.413 156.295 150.684 155.949C150.954 155.595 151.332 155.324 151.818 155.137C152.312 154.941 152.896 154.843 153.568 154.843C154.072 154.843 154.58 154.899 155.094 155.011C155.607 155.123 156.032 155.282 156.368 155.487L155.696 156.817C155.341 156.603 154.982 156.458 154.618 156.383C154.263 156.299 153.908 156.257 153.554 156.257C153.022 156.257 152.625 156.337 152.364 156.495C152.112 156.654 151.986 156.855 151.986 157.097C151.986 157.321 152.07 157.489 152.238 157.601C152.406 157.713 152.625 157.802 152.896 157.867C153.166 157.933 153.465 157.989 153.792 158.035C154.128 158.073 154.459 158.133 154.786 158.217C155.112 158.301 155.411 158.418 155.682 158.567C155.962 158.707 156.186 158.908 156.354 159.169C156.522 159.431 156.606 159.771 156.606 160.191C156.606 160.658 156.466 161.064 156.186 161.409C155.915 161.755 155.528 162.025 155.024 162.221C154.52 162.408 153.918 162.501 153.218 162.501ZM161.277 162.501C160.642 162.501 160.082 162.385 159.597 162.151C159.112 161.909 158.734 161.545 158.463 161.059C158.192 160.565 158.057 159.944 158.057 159.197V154.927H159.807V158.959C159.807 159.631 159.956 160.135 160.255 160.471C160.563 160.798 160.997 160.961 161.557 160.961C161.968 160.961 162.322 160.877 162.621 160.709C162.929 160.541 163.167 160.289 163.335 159.953C163.512 159.617 163.601 159.202 163.601 158.707V154.927H165.351V162.403H163.685V160.387L163.979 161.003C163.727 161.489 163.358 161.862 162.873 162.123C162.388 162.375 161.856 162.501 161.277 162.501ZM172.248 162.403V160.891L172.15 160.569V157.923C172.15 157.41 171.996 157.013 171.688 156.733C171.38 156.444 170.913 156.299 170.288 156.299C169.868 156.299 169.453 156.365 169.042 156.495C168.641 156.626 168.3 156.808 168.02 157.041L167.334 155.767C167.735 155.459 168.211 155.231 168.762 155.081C169.322 154.923 169.901 154.843 170.498 154.843C171.581 154.843 172.416 155.105 173.004 155.627C173.601 156.141 173.9 156.939 173.9 158.021V162.403H172.248ZM169.896 162.501C169.336 162.501 168.846 162.408 168.426 162.221C168.006 162.025 167.679 161.759 167.446 161.423C167.222 161.078 167.11 160.691 167.11 160.261C167.11 159.841 167.208 159.463 167.404 159.127C167.609 158.791 167.941 158.525 168.398 158.329C168.855 158.133 169.462 158.035 170.218 158.035H172.388V159.197H170.344C169.747 159.197 169.345 159.295 169.14 159.491C168.935 159.678 168.832 159.911 168.832 160.191C168.832 160.509 168.958 160.761 169.21 160.947C169.462 161.134 169.812 161.227 170.26 161.227C170.689 161.227 171.072 161.129 171.408 160.933C171.753 160.737 172.001 160.448 172.15 160.065L172.444 161.115C172.276 161.554 171.973 161.895 171.534 162.137C171.105 162.38 170.559 162.501 169.896 162.501ZM169.476 153.905L171.366 151.987H173.424L170.988 153.905H169.476ZM176.146 162.403V154.927H177.812V156.985L177.616 156.383C177.84 155.879 178.19 155.497 178.666 155.235C179.151 154.974 179.753 154.843 180.472 154.843V156.509C180.397 156.491 180.327 156.481 180.262 156.481C180.197 156.472 180.131 156.467 180.066 156.467C179.403 156.467 178.876 156.663 178.484 157.055C178.092 157.438 177.896 158.012 177.896 158.777V162.403H176.146ZM181.957 162.403V154.927H183.707V162.403H181.957ZM182.839 153.695C182.512 153.695 182.241 153.593 182.027 153.387C181.821 153.182 181.719 152.935 181.719 152.645C181.719 152.347 181.821 152.099 182.027 151.903C182.241 151.698 182.512 151.595 182.839 151.595C183.165 151.595 183.431 151.693 183.637 151.889C183.851 152.076 183.959 152.314 183.959 152.603C183.959 152.911 183.856 153.173 183.651 153.387C183.445 153.593 183.175 153.695 182.839 153.695ZM189.363 162.501C188.598 162.501 187.917 162.338 187.319 162.011C186.722 161.675 186.251 161.218 185.905 160.639C185.56 160.061 185.387 159.403 185.387 158.665C185.387 157.919 185.56 157.261 185.905 156.691C186.251 156.113 186.722 155.66 187.319 155.333C187.917 155.007 188.598 154.843 189.363 154.843C190.138 154.843 190.824 155.007 191.421 155.333C192.028 155.66 192.499 156.108 192.835 156.677C193.181 157.247 193.353 157.909 193.353 158.665C193.353 159.403 193.181 160.061 192.835 160.639C192.499 161.218 192.028 161.675 191.421 162.011C190.824 162.338 190.138 162.501 189.363 162.501ZM189.363 161.003C189.793 161.003 190.175 160.91 190.511 160.723C190.847 160.537 191.109 160.266 191.295 159.911C191.491 159.557 191.589 159.141 191.589 158.665C191.589 158.18 191.491 157.765 191.295 157.419C191.109 157.065 190.847 156.794 190.511 156.607C190.175 156.421 189.797 156.327 189.377 156.327C188.948 156.327 188.565 156.421 188.229 156.607C187.903 156.794 187.641 157.065 187.445 157.419C187.249 157.765 187.151 158.18 187.151 158.665C187.151 159.141 187.249 159.557 187.445 159.911C187.641 160.266 187.903 160.537 188.229 160.723C188.565 160.91 188.943 161.003 189.363 161.003Z" fill="white"/>
<path d="M113.603 121.122C112.66 121.122 111.835 120.769 111.129 120.062C110.422 119.355 110.068 118.531 110.068 117.588V82.2464C110.068 81.3039 110.422 80.4793 111.129 79.7724C111.835 79.0656 112.66 78.7122 113.603 78.7122H148.944C149.887 78.7122 150.712 79.0656 151.418 79.7724C152.125 80.4793 152.479 81.3039 152.479 82.2464V98.3858C151.929 98.0717 151.36 97.8263 150.77 97.6495C150.181 97.4728 149.573 97.3059 148.944 97.1489V82.2464H113.603V115.409C115.919 113.249 118.541 111.492 121.466 110.137C124.392 108.782 127.563 108.085 130.979 108.046C130.822 108.596 130.704 109.165 130.626 109.754C130.547 110.343 130.508 110.952 130.508 111.58C128.034 111.659 125.638 112.159 123.322 113.082C121.005 114.005 118.845 115.33 116.842 117.058V117.588H131.627C131.902 118.256 132.196 118.874 132.51 119.444C132.825 120.013 133.198 120.573 133.63 121.122H113.603ZM131.391 103.393C131.705 103.393 132.01 103.383 132.304 103.363C132.599 103.344 132.903 103.294 133.217 103.216C133.963 102.195 134.818 101.262 135.78 100.418C136.742 99.5737 137.792 98.8767 138.931 98.3269C139.127 97.8557 139.275 97.3648 139.373 96.8543C139.471 96.3439 139.52 95.8137 139.52 95.264C139.52 92.9864 138.735 91.0622 137.164 89.4914C135.593 87.9207 133.669 87.1353 131.391 87.1353C129.114 87.1353 127.19 87.9207 125.619 89.4914C124.048 91.0622 123.263 92.9864 123.263 95.264C123.263 97.5416 124.048 99.4657 125.619 101.036C127.19 102.607 129.114 103.393 131.391 103.393ZM131.391 99.8584C130.135 99.8584 129.055 99.4068 128.152 98.5036C127.248 97.6005 126.797 96.5206 126.797 95.264C126.797 94.0074 127.248 92.9275 128.152 92.0243C129.055 91.1211 130.135 90.6695 131.391 90.6695C132.648 90.6695 133.728 91.1211 134.631 92.0243C135.534 92.9275 135.986 94.0074 135.986 95.264C135.986 96.5206 135.534 97.6005 134.631 98.5036C133.728 99.4068 132.648 99.8584 131.391 99.8584ZM143.82 123.479L143.525 120.651C142.74 120.416 141.935 120.072 141.11 119.62C140.286 119.169 139.618 118.668 139.108 118.118L136.634 119.296L134.572 116.116L136.81 114.349C136.614 113.445 136.516 112.631 136.516 111.904C136.516 111.178 136.614 110.363 136.81 109.46L134.572 107.693L136.634 104.453L139.108 105.631C139.618 105.16 140.286 104.688 141.11 104.217C141.935 103.746 142.74 103.393 143.525 103.157L143.82 100.271H147.354L147.708 103.157C148.493 103.393 149.298 103.746 150.123 104.217C150.947 104.688 151.615 105.16 152.125 105.631L154.599 104.453L156.661 107.693L154.422 109.46C154.619 110.363 154.717 111.178 154.717 111.904C154.717 112.631 154.619 113.445 154.422 114.349L156.661 116.116L154.599 119.296L152.125 118.118C151.615 118.668 150.947 119.169 150.123 119.62C149.298 120.072 148.493 120.416 147.708 120.651L147.354 123.479H143.82ZM145.587 117.883C147.315 117.883 148.748 117.313 149.887 116.175C151.026 115.036 151.595 113.602 151.595 111.875C151.595 110.147 151.026 108.714 149.887 107.575C148.748 106.436 147.315 105.867 145.587 105.867C143.859 105.867 142.426 106.436 141.287 107.575C140.148 108.714 139.579 110.147 139.579 111.875C139.579 113.602 140.148 115.036 141.287 116.175C142.426 117.313 143.859 117.883 145.587 117.883Z" fill="#F5F5F5"/>
<defs>
<filter id="filter0_bd_474_31" x="0" y="0" width="262" height="262" filterUnits="userSpaceOnUse" color-interpolation-filters="sRGB">
<feFlood flood-opacity="0" result="BackgroundImageFix"/>
<feGaussianBlur in="BackgroundImageFix" stdDeviation="6"/>
<feComposite in2="SourceAlpha" operator="in" result="effect1_backgroundBlur_474_31"/>
<feColorMatrix in="SourceAlpha" type="matrix" values="0 0 0 0 0 0 0 0 0 0 0 0 0 0 0 0 0 0 127 0" result="hardAlpha"/>
<feOffset dy="12"/>
<feGaussianBlur stdDeviation="17"/>
<feComposite in2="hardAlpha" operator="out"/>
<feColorMatrix type="matrix" values="0 0 0 0 0 0 0 0 0 0 0 0 0 0 0 0 0 0 0.25 0"/>
<feBlend mode="normal" in2="effect1_backgroundBlur_474_31" result="effect2_dropShadow_474_31"/>
<feBlend mode="normal" in="SourceGraphic" in2="effect2_dropShadow_474_31" result="shape"/>
</filter>
<linearGradient id="paint0_linear_474_31" x1="228" y1="216" x2="34" y2="22" gradientUnits="userSpaceOnUse">
<stop stop-color="white" stop-opacity="0.5"/>
<stop offset="1" stop-color="white" stop-opacity="0"/>
<stop offset="1" stop-color="white" stop-opacity="0"/>
</linearGradient>
</defs>
</svg>
