<svg width="64" height="65" viewBox="0 0 64 65" fill="none" xmlns="http://www.w3.org/2000/svg">
<path d="M50.0667 24.6459L39.7333 14.1511L44.4 9.41154C45.1556 8.64418 46.0889 8.2605 47.2 8.2605C48.3111 8.2605 49.2445 8.64418 50 9.41154L54.7333 14.2188C55.4889 14.9862 55.8667 15.9341 55.8667 17.0626C55.8667 18.1911 55.4889 19.139 54.7333 19.9063L50.0667 24.6459ZM8.00001 56.8751V46.3126L20.9333 33.1772L6.20001 18.1459L17.8 6.22925L32.6667 21.3282L39.7333 14.1511L50.0667 24.6459L43 31.823L57.8667 46.922L46.2 58.6355L31.4 43.672L18.4 56.8751H8.00001ZM23.8 30.2657L29.8 24.172L24.9333 19.2292L21.7333 22.4792L18.9333 19.6355L22.1333 16.3855L17.8667 12.0522L11.8667 18.1459L23.8 30.2657ZM46.0667 52.948L52.0667 46.8542L47.8 42.5209L44.6 45.7709L41.8 42.9272L45 39.6772L40.1333 34.7345L34.1333 40.8282L46.0667 52.948ZM12 52.8126H16.6667L44.3333 24.7136L39.6667 19.974L12 48.073V52.8126Z" fill="#F5F5F5"/>
</svg>
