<svg width="262" height="262" viewBox="0 0 262 262" fill="none" xmlns="http://www.w3.org/2000/svg">
<g filter="url(#filter0_bd_474_21)">
<rect x="34.5" y="22.5" width="193" height="193" stroke="url(#paint0_linear_474_21)" shape-rendering="crispEdges"/>
</g>
<path d="M146.556 93.028L137.566 83.898L141.626 79.7748C142.283 79.1072 143.095 78.7734 144.062 78.7734C145.028 78.7734 145.84 79.1072 146.498 79.7748L150.616 83.9569C151.273 84.6245 151.601 85.4491 151.601 86.4309C151.601 87.4126 151.273 88.2372 150.616 88.9048L146.556 93.028ZM109.96 121.066V111.877L121.211 100.45L108.394 87.3733L118.485 77.0063L131.418 90.1418L137.566 83.898L146.556 93.028L140.408 99.2718L153.341 112.407L143.192 122.597L130.317 109.58L119.007 121.066H109.96ZM123.705 97.917L128.925 92.6157L124.691 88.3158L121.907 91.1431L119.471 88.6692L122.255 85.8418L118.543 82.072L113.323 87.3733L123.705 97.917ZM143.076 117.65L148.296 112.348L144.584 108.578L141.8 111.406L139.364 108.932L142.148 106.105L137.914 101.805L132.694 107.106L143.076 117.65ZM113.439 117.532H117.499L141.568 93.0869L137.508 88.9637L113.439 113.409V117.532Z" fill="#F5F5F5"/>
<path d="M80.32 161.965C78.784 161.965 77.5787 161.533 76.704 160.669C75.84 159.805 75.408 158.557 75.408 156.925V150.605H77.488V156.845C77.488 157.997 77.7333 158.835 78.224 159.357C78.7253 159.88 79.4293 160.141 80.336 160.141C81.2427 160.141 81.9413 159.88 82.432 159.357C82.9227 158.835 83.168 157.997 83.168 156.845V150.605H85.216V156.925C85.216 158.557 84.7787 159.805 83.904 160.669C83.04 161.533 81.8453 161.965 80.32 161.965ZM86.6128 161.805L91.3328 155.309V156.877L86.8368 150.605H89.1888L92.5328 155.245L91.5728 155.261L94.8848 150.605H97.1408L92.6768 156.765V155.261L97.4288 161.805H95.0288L91.5088 156.877H92.4528L88.9808 161.805H86.6128ZM97.3169 163.405L102.597 148.333H104.389L99.1089 163.405H97.3169ZM114.476 161.965C112.94 161.965 111.735 161.533 110.86 160.669C109.996 159.805 109.564 158.557 109.564 156.925V150.605H111.644V156.845C111.644 157.997 111.89 158.835 112.38 159.357C112.882 159.88 113.586 160.141 114.492 160.141C115.399 160.141 116.098 159.88 116.588 159.357C117.079 158.835 117.324 157.997 117.324 156.845V150.605H119.372V156.925C119.372 158.557 118.935 159.805 118.06 160.669C117.196 161.533 116.002 161.965 114.476 161.965ZM122.285 161.805V150.605H124.365V161.805H122.285ZM131.817 161.805V150.605H136.713C137.929 150.605 138.995 150.84 139.913 151.309C140.83 151.779 141.545 152.429 142.057 153.261C142.569 154.093 142.825 155.075 142.825 156.205C142.825 157.325 142.569 158.307 142.057 159.149C141.545 159.981 140.83 160.632 139.913 161.101C138.995 161.571 137.929 161.805 136.713 161.805H131.817ZM133.897 160.045H136.617C137.459 160.045 138.185 159.885 138.793 159.565C139.411 159.245 139.886 158.797 140.217 158.221C140.558 157.645 140.729 156.973 140.729 156.205C140.729 155.427 140.558 154.755 140.217 154.189C139.886 153.613 139.411 153.165 138.793 152.845C138.185 152.525 137.459 152.365 136.617 152.365H133.897V160.045ZM148.859 161.917C147.91 161.917 147.078 161.731 146.363 161.357C145.659 160.973 145.11 160.451 144.715 159.789C144.331 159.128 144.139 158.376 144.139 157.533C144.139 156.68 144.326 155.928 144.699 155.277C145.083 154.616 145.606 154.099 146.267 153.725C146.939 153.352 147.702 153.165 148.555 153.165C149.387 153.165 150.129 153.347 150.779 153.709C151.43 154.072 151.942 154.584 152.315 155.245C152.689 155.907 152.875 156.685 152.875 157.581C152.875 157.667 152.87 157.763 152.859 157.869C152.859 157.976 152.854 158.077 152.843 158.173H145.723V156.845H151.787L151.003 157.261C151.014 156.771 150.913 156.339 150.699 155.965C150.486 155.592 150.193 155.299 149.819 155.085C149.457 154.872 149.035 154.765 148.555 154.765C148.065 154.765 147.633 154.872 147.259 155.085C146.897 155.299 146.609 155.597 146.395 155.981C146.193 156.355 146.091 156.797 146.091 157.309V157.629C146.091 158.141 146.209 158.595 146.443 158.989C146.678 159.384 147.009 159.688 147.435 159.901C147.862 160.115 148.353 160.221 148.907 160.221C149.387 160.221 149.819 160.147 150.203 159.997C150.587 159.848 150.929 159.613 151.227 159.293L152.299 160.525C151.915 160.973 151.43 161.32 150.843 161.565C150.267 161.8 149.606 161.917 148.859 161.917ZM157.436 161.917C156.722 161.917 156.034 161.827 155.372 161.645C154.722 161.453 154.204 161.224 153.82 160.957L154.588 159.437C154.972 159.683 155.431 159.885 155.964 160.045C156.498 160.205 157.031 160.285 157.564 160.285C158.194 160.285 158.647 160.2 158.924 160.029C159.212 159.859 159.356 159.629 159.356 159.341C159.356 159.107 159.26 158.931 159.068 158.813C158.876 158.685 158.626 158.589 158.316 158.525C158.007 158.461 157.66 158.403 157.276 158.349C156.903 158.296 156.524 158.227 156.14 158.141C155.767 158.045 155.426 157.912 155.116 157.741C154.807 157.56 154.556 157.32 154.364 157.021C154.172 156.723 154.076 156.328 154.076 155.837C154.076 155.293 154.231 154.824 154.54 154.429C154.85 154.024 155.282 153.715 155.836 153.501C156.402 153.277 157.068 153.165 157.836 153.165C158.412 153.165 158.994 153.229 159.58 153.357C160.167 153.485 160.652 153.667 161.036 153.901L160.268 155.421C159.863 155.176 159.452 155.011 159.036 154.925C158.631 154.829 158.226 154.781 157.82 154.781C157.212 154.781 156.759 154.872 156.46 155.053C156.172 155.235 156.028 155.464 156.028 155.741C156.028 155.997 156.124 156.189 156.316 156.317C156.508 156.445 156.759 156.547 157.068 156.621C157.378 156.696 157.719 156.76 158.092 156.813C158.476 156.856 158.855 156.925 159.228 157.021C159.602 157.117 159.943 157.251 160.252 157.421C160.572 157.581 160.828 157.811 161.02 158.109C161.212 158.408 161.308 158.797 161.308 159.277C161.308 159.811 161.148 160.275 160.828 160.669C160.519 161.064 160.076 161.373 159.5 161.597C158.924 161.811 158.236 161.917 157.436 161.917ZM163.031 161.805V153.261H165.031V161.805H163.031ZM164.039 151.853C163.665 151.853 163.356 151.736 163.111 151.501C162.876 151.267 162.759 150.984 162.759 150.653C162.759 150.312 162.876 150.029 163.111 149.805C163.356 149.571 163.665 149.453 164.039 149.453C164.412 149.453 164.716 149.565 164.951 149.789C165.196 150.003 165.319 150.275 165.319 150.605C165.319 150.957 165.201 151.256 164.967 151.501C164.732 151.736 164.423 151.853 164.039 151.853ZM171.528 165.021C170.738 165.021 169.965 164.915 169.208 164.701C168.461 164.499 167.848 164.2 167.368 163.805L168.264 162.301C168.637 162.611 169.106 162.856 169.672 163.037C170.248 163.229 170.829 163.325 171.416 163.325C172.354 163.325 173.042 163.107 173.48 162.669C173.917 162.243 174.136 161.597 174.136 160.733V159.213L174.296 157.277L174.232 155.341V153.261H176.136V160.509C176.136 162.056 175.741 163.192 174.952 163.917C174.162 164.653 173.021 165.021 171.528 165.021ZM171.272 161.421C170.461 161.421 169.725 161.251 169.064 160.909C168.413 160.557 167.896 160.072 167.512 159.453C167.138 158.835 166.952 158.109 166.952 157.277C166.952 156.456 167.138 155.736 167.512 155.117C167.896 154.499 168.413 154.019 169.064 153.677C169.725 153.336 170.461 153.165 171.272 153.165C171.997 153.165 172.648 153.309 173.224 153.597C173.8 153.885 174.258 154.333 174.6 154.941C174.952 155.549 175.128 156.328 175.128 157.277C175.128 158.227 174.952 159.011 174.6 159.629C174.258 160.237 173.8 160.691 173.224 160.989C172.648 161.277 171.997 161.421 171.272 161.421ZM171.576 159.725C172.077 159.725 172.525 159.624 172.92 159.421C173.314 159.208 173.618 158.92 173.832 158.557C174.056 158.184 174.168 157.757 174.168 157.277C174.168 156.797 174.056 156.376 173.832 156.013C173.618 155.64 173.314 155.357 172.92 155.165C172.525 154.963 172.077 154.861 171.576 154.861C171.074 154.861 170.621 154.963 170.216 155.165C169.821 155.357 169.512 155.64 169.288 156.013C169.074 156.376 168.968 156.797 168.968 157.277C168.968 157.757 169.074 158.184 169.288 158.557C169.512 158.92 169.821 159.208 170.216 159.421C170.621 159.624 171.074 159.725 171.576 159.725ZM183.613 153.165C184.296 153.165 184.904 153.299 185.437 153.565C185.981 153.832 186.408 154.243 186.717 154.797C187.026 155.341 187.181 156.045 187.181 156.909V161.805H185.181V157.165C185.181 156.408 185 155.843 184.637 155.469C184.285 155.096 183.789 154.909 183.149 154.909C182.68 154.909 182.264 155.005 181.901 155.197C181.538 155.389 181.256 155.677 181.053 156.061C180.861 156.435 180.765 156.909 180.765 157.485V161.805H178.765V153.261H180.669V155.565L180.333 154.861C180.632 154.317 181.064 153.901 181.629 153.613C182.205 153.315 182.866 153.165 183.613 153.165Z" fill="white"/>
<defs>
<filter id="filter0_bd_474_21" x="0" y="0" width="262" height="262" filterUnits="userSpaceOnUse" color-interpolation-filters="sRGB">
<feFlood flood-opacity="0" result="BackgroundImageFix"/>
<feGaussianBlur in="BackgroundImageFix" stdDeviation="6"/>
<feComposite in2="SourceAlpha" operator="in" result="effect1_backgroundBlur_474_21"/>
<feColorMatrix in="SourceAlpha" type="matrix" values="0 0 0 0 0 0 0 0 0 0 0 0 0 0 0 0 0 0 127 0" result="hardAlpha"/>
<feOffset dy="12"/>
<feGaussianBlur stdDeviation="17"/>
<feComposite in2="hardAlpha" operator="out"/>
<feColorMatrix type="matrix" values="0 0 0 0 0 0 0 0 0 0 0 0 0 0 0 0 0 0 0.25 0"/>
<feBlend mode="normal" in2="effect1_backgroundBlur_474_21" result="effect2_dropShadow_474_21"/>
<feBlend mode="normal" in="SourceGraphic" in2="effect2_dropShadow_474_21" result="shape"/>
</filter>
<linearGradient id="paint0_linear_474_21" x1="228" y1="216" x2="34" y2="22" gradientUnits="userSpaceOnUse">
<stop stop-color="white" stop-opacity="0.5"/>
<stop offset="1" stop-color="white" stop-opacity="0"/>
<stop offset="1" stop-color="white" stop-opacity="0"/>
</linearGradient>
</defs>
</svg>
