<svg width="1920" height="638" viewBox="0 0 1920 638" fill="none" xmlns="http://www.w3.org/2000/svg">
<path d="M309.814 343.123C178.314 318.621 -30.8101 368.604 -30.8101 368.604L-112.201 617.405L1970.9 616.902L1972.94 407.327C1972.94 407.327 1834.87 375.583 1641.07 373.694C1523.99 372.553 1538.49 281.497 1285.04 303.027C1175.46 312.336 1069.45 410.089 958.589 411.043C848.751 411.989 823.557 341.307 717.083 324.692C563.077 300.661 472.898 373.512 309.814 343.123Z" fill="url(#paint0_linear_205_39)"/>
<path d="M1694.59 52.9679C1775.75 14.5727 1931.56 3.07824 1931.56 3.07824L2010.99 620.367L1072 616.996C1072 616.996 1128.72 543.401 1151.35 501.593C1181.03 446.736 1256.78 407.881 1306.99 362.108C1371.32 303.461 1410.19 296.009 1506.07 251.194C1639.66 188.755 1587.11 103.805 1694.59 52.9679Z" fill="url(#paint1_linear_205_39)"/>
<defs>
<linearGradient id="paint0_linear_205_39" x1="933.099" y1="232.399" x2="916.219" y2="660.139" gradientUnits="userSpaceOnUse">
<stop stop-color="#7C3B34"/>
<stop offset="1" stop-color="#C18C54"/>
</linearGradient>
<linearGradient id="paint1_linear_205_39" x1="1583.42" y1="-97.2969" x2="1580.94" y2="618.823" gradientUnits="userSpaceOnUse">
<stop stop-color="#946643"/>
<stop offset="1" stop-color="#F7B993"/>
</linearGradient>
</defs>
</svg>
